<svg width="45" height="46" viewBox="0 0 45 46" fill="none" xmlns="http://www.w3.org/2000/svg">
    <path d="M32.54 19.2896L29.5332 20.8694C29.8645 21.4045 30.1702 21.9651 30.4505 22.5512C31.4443 21.8377 32.2597 20.5381 32.54 19.2896Z" fill="#403F41"/>
    <path d="M33.7369 19.5442C33.3801 21.226 32.2335 22.9078 30.8575 23.7487C31.1887 24.717 31.3926 25.7362 31.4945 26.8064C31.4945 26.8574 31.4945 26.8829 31.4945 26.9338C31.52 27.2651 31.5455 27.5964 31.5455 27.9276C31.5455 35.2153 25.6338 41.127 18.3461 41.127C11.0584 41.127 5.14666 35.2153 5.14666 27.9276C5.14666 20.6399 11.0584 14.7282 18.3461 14.7282C18.397 14.7282 18.4225 14.7282 18.4735 14.7282C18.6264 14.7282 18.7793 14.7282 18.9321 14.7282C19.1105 14.7282 19.2634 14.7537 19.4418 14.7537C19.4673 14.7537 19.4927 14.7537 19.5182 14.7537C19.9004 14.7792 20.2572 14.8301 20.6394 14.9066C21.0726 13.4541 21.888 12.0272 22.8818 10.8805C21.4293 10.4983 19.9259 10.2944 18.3461 10.2944C8.61215 10.2944 0.712891 18.1937 0.712891 27.9276C0.712891 37.6615 8.61215 45.5608 18.3461 45.5608C28.08 45.5608 35.9793 37.6615 35.9793 27.9276C35.9793 24.8444 35.1893 21.9395 33.7878 19.3913L33.7369 19.5442Z" fill="#403F41"/>
    <path d="M26.0168 9.9123C24.1566 10.8806 22.5513 12.9956 21.8633 15.187C24.7682 15.9769 27.2908 17.7606 29.0236 20.1304L32.8458 18.1173L33.1516 17.9644C34.3237 17.3529 35.3685 15.8495 35.6488 14.448L29.2274 17.7351C29.1765 17.7606 29.1 17.7861 29.0236 17.7861C28.8707 17.7861 28.7178 17.7096 28.6413 17.5567C28.5394 17.3529 28.6159 17.0726 28.8197 16.9707L35.9545 13.3013L36.2603 13.1484C37.4325 12.5369 38.4772 11.0335 38.7575 9.632L30.7054 13.709C30.6544 13.7345 30.5779 13.76 30.5015 13.76C30.3486 13.76 30.1957 13.6836 30.1193 13.5307C30.0173 13.3268 30.0938 13.0465 30.3231 12.9446L39.0888 8.51081L39.3945 8.35793C40.5667 7.74637 41.6114 6.24296 41.8917 4.84148L32.1833 9.68296C32.1323 9.70844 32.0559 9.73393 31.9794 9.73393C31.8265 9.73393 31.6737 9.65748 31.5972 9.50459C31.4953 9.30074 31.5717 9.02044 31.8011 8.91852L42.1975 3.66933L42.5033 3.51644C43.6754 2.90489 44.7202 1.40148 45.0005 0L26.0168 9.9123Z" fill="#403F41"/>
    <path d="M13.8102 25.3797L13.0967 25.3032L13.4534 23.8253H18.0401L18.6772 21.0988H11.313L10.0644 26.2715C9.96249 26.6537 10.0389 27.036 10.2428 27.3163C10.4466 27.622 10.7779 27.8004 11.1856 27.8514L12.638 27.9788C13.2751 28.0297 14.116 28.1317 14.3708 28.4629C14.4472 28.5394 14.5237 28.7177 14.4472 29.1764C14.2943 29.9663 13.9376 30.7308 12.1794 30.8327C11.4404 30.8837 10.5486 30.8072 9.58026 30.6034L9.07063 30.5014L8.43359 33.1515L8.89226 33.2789C9.937 33.5337 11.0582 33.6866 12.052 33.6866C12.2049 33.6866 12.3832 33.6866 12.5361 33.6866C15.2626 33.5337 17.0208 32.0558 17.4286 29.4822C17.6069 28.361 17.4286 27.4691 16.9189 26.8066C16.3328 25.9912 15.3136 25.5326 13.8102 25.3797ZM27.8505 24.5897C28.0034 23.8253 28.1053 22.7296 27.4683 21.9397C26.8822 21.2262 25.8375 20.9204 24.0792 20.9204C21.0469 20.8694 19.8238 21.8123 19.3652 24.284C19.1613 25.4052 19.2632 26.246 19.6709 26.8066C19.6964 26.8321 19.7219 26.8831 19.7474 26.9086C18.6007 27.5456 18.2185 28.8961 18.0146 29.9663C17.8363 31.062 17.9891 31.9029 18.4988 32.5145C19.1358 33.2789 20.308 33.6357 22.0917 33.6357C25.2514 33.6102 26.6019 32.6929 27.0351 30.2466C27.2899 28.9216 27.188 27.9788 26.7293 27.3417C26.6528 27.2398 26.5764 27.1379 26.4745 27.0614C27.1625 26.6028 27.6212 25.7874 27.8505 24.5897ZM24.2066 29.5331C24.0028 30.6543 23.7734 30.9346 22.372 30.9346C21.6075 30.9346 21.1489 30.8582 21.0215 30.7053C20.9195 30.6034 20.9195 30.3231 21.0215 29.8389C21.2508 28.5394 21.4546 28.3865 22.8816 28.361C23.646 28.361 24.1047 28.4374 24.2066 28.5649C24.334 28.6668 24.334 28.998 24.2066 29.5331ZM24.9711 24.5133C24.7927 25.558 24.6398 25.7619 23.3657 25.7619C22.4994 25.7619 22.2191 25.66 22.1426 25.558C22.0917 25.5071 22.0662 25.3032 22.1681 24.7936C22.372 23.7234 22.4484 23.494 23.8244 23.494C24.7163 23.494 24.9456 23.6214 24.9966 23.6724C25.073 23.7743 25.0475 24.0546 24.9711 24.5133Z" fill="#ED2823"/>
</svg>
