<svg width="24" height="28" viewBox="0 0 24 28" fill="none" xmlns="http://www.w3.org/2000/svg">
<path d="M23.5319 19.6948L20.7466 18.0529L23.1603 16.5997C23.6055 16.3316 23.7536 15.7458 23.4911 15.2913C23.2285 14.8368 22.655 14.6856 22.2096 14.9535L18.8847 16.9554L13.8715 13.9999L18.8839 11.045L22.2098 13.0466C22.3589 13.1364 22.5226 13.179 22.684 13.179C23.0044 13.179 23.3165 13.0108 23.4911 12.7085C23.7534 12.2539 23.6052 11.6681 23.16 11.4001L20.7459 9.94736L23.5319 8.30505C23.9794 8.04121 24.1328 7.45682 23.8744 6.99984C23.616 6.54273 23.0436 6.38616 22.5961 6.65013L19.8108 8.29218L19.7855 5.43066C19.7808 4.90297 19.3569 4.47657 18.8413 4.48383C18.3245 4.48854 17.9093 4.92017 17.914 5.44786L17.9488 9.38973L12.9359 12.345V6.43495L16.2968 4.49542C16.7468 4.23578 16.9053 3.65293 16.6511 3.1934C16.3968 2.73399 15.8258 2.57194 15.3759 2.83171L12.9359 4.23986V0.955497C12.9359 0.427808 12.5169 0 12.0001 0C11.4833 0 11.0643 0.427808 11.0643 0.955497V4.23986L8.62424 2.83184C8.17406 2.57207 7.60348 2.73399 7.34907 3.19352C7.09478 3.65293 7.25337 4.23591 7.7033 4.49555L11.0641 6.43508V12.345L6.05119 9.38973L6.086 5.44786C6.09074 4.92017 5.6755 4.48854 5.1587 4.48383C5.15583 4.48383 5.15308 4.48383 5.15009 4.48383C4.63728 4.48383 4.21917 4.9059 4.21455 5.43079L4.18922 8.29218L1.40394 6.65013C0.956381 6.38616 0.384053 6.54286 0.12565 6.99984C-0.132753 7.45682 0.020592 8.04121 0.468149 8.30505L3.25393 9.94736L0.83947 11.4003C0.394284 11.6683 0.246055 12.2541 0.50845 12.7087C0.683006 13.0111 0.995061 13.1792 1.3156 13.1792C1.47705 13.1792 1.64063 13.1365 1.78986 13.0469L5.11615 11.0453L10.1286 14.0002L5.11528 16.9556L1.78986 14.9534C1.34492 14.6855 0.77097 14.8366 0.50845 15.2911C0.24593 15.7457 0.394034 16.3315 0.83922 16.5994L3.25331 18.0528L0.468024 19.6947C0.0204673 19.9585 -0.132877 20.5429 0.125525 20.9999C0.298833 21.3064 0.613383 21.4778 0.936792 21.4778C1.0955 21.4778 1.25646 21.4365 1.40381 21.3496L4.1891 19.7076L4.21442 22.5692C4.21904 23.094 4.63715 23.5162 5.14996 23.5162C5.15283 23.5162 5.1557 23.5162 5.15857 23.516C5.67538 23.5113 6.09062 23.0797 6.08588 22.552L6.05107 18.61L11.0641 15.6547V21.5649L7.7033 23.5045C7.25337 23.7641 7.09478 24.3469 7.34907 24.8065C7.52113 25.1173 7.83817 25.292 8.16458 25.292C8.32054 25.292 8.47875 25.2521 8.62424 25.1682L11.0643 23.7601V27.0445C11.0643 27.5722 11.4833 28 12.0001 28C12.5169 28 12.9359 27.5722 12.9359 27.0445V23.7601L15.3759 25.1682C15.5214 25.2521 15.6795 25.292 15.8356 25.292C16.162 25.292 16.479 25.1173 16.6511 24.8065C16.9053 24.3471 16.7468 23.7641 16.2968 23.5045L12.9359 21.5649V15.6549L17.9488 18.61L17.9131 22.5519C17.9083 23.0796 18.3234 23.5113 18.8402 23.5162C18.8432 23.5163 18.846 23.5163 18.849 23.5163C19.3617 23.5163 19.7798 23.0942 19.7846 22.5696L19.8105 19.7076L22.5962 21.3497C22.7435 21.4366 22.9045 21.4779 23.0632 21.4779C23.3866 21.4779 23.7012 21.3064 23.8745 21C24.1329 20.543 23.9795 19.9587 23.5319 19.6948Z" fill="white"/>
</svg>
