<svg width="18" height="18" viewBox="0 0 18 18" fill="none" xmlns="http://www.w3.org/2000/svg">
<path d="M9 0C4.03748 0 0 4.03748 0 9C0 13.9625 4.03748 18 9 18C13.9625 18 18 13.9625 18 9C18 4.03748 13.9625 0 9 0ZM14.1401 6.42041L7.65527 12.9053C7.50878 13.0518 7.3169 13.125 7.12501 13.125C6.93313 13.125 6.74121 13.0518 6.59475 12.9053L3.10992 9.4204C2.96343 9.27397 2.96343 9.03653 3.10992 8.89007L3.64011 8.35984C3.78661 8.21341 4.02398 8.21341 4.17048 8.35984L7.12501 11.3144L13.0795 5.35985C13.226 5.21343 13.4634 5.21343 13.6099 5.35985L14.1401 5.89008C14.2866 6.03654 14.2866 6.27398 14.1401 6.42041Z" fill="#ED2823"/>
</svg>
