<svg width="31" height="37" viewBox="0 0 31 37" fill="none" xmlns="http://www.w3.org/2000/svg">
    <path d="M28.0712 24.2271L30.2233 25.5289C30.5823 25.746 30.8391 26.0966 30.9463 26.5163C31.0536 26.9357 30.9985 27.3739 30.7912 27.7501C30.584 28.1261 30.2494 28.3952 29.849 28.5076C29.4486 28.6201 29.0303 28.5623 28.6714 28.3452L26.5193 27.0433V29.647C26.5193 30.5435 25.8231 31.2729 24.9674 31.2729C24.1117 31.2729 23.4155 30.5435 23.4155 29.647V25.1658L22.3553 24.5244C22.2989 24.8454 22.1515 25.1409 21.9264 25.3768C21.6333 25.6839 21.2436 25.853 20.8291 25.853C19.9734 25.853 19.2772 25.1236 19.2772 24.2271V22.6625L17.5625 21.6252L17.0518 21.9341V24.0087L18.3451 24.7909C18.7041 25.008 18.9608 25.3587 19.0681 25.7782C19.1755 26.1977 19.1203 26.6359 18.9131 27.012C18.539 27.6912 17.7568 27.9932 17.0518 27.7313V29.0154L20.7558 31.256C21.1148 31.4731 21.3715 31.8238 21.4789 32.2433C21.5862 32.6628 21.5311 33.101 21.3238 33.4771C21.1166 33.8533 20.782 34.1223 20.3815 34.2348C19.981 34.3469 19.5628 34.2895 19.2039 34.0722L17.0518 32.7704V35.374C17.0518 36.2705 16.3556 37 15.5 37C14.6443 37 13.9481 36.2705 13.9481 35.374V32.7702L11.796 34.0721C11.4371 34.2893 11.019 34.3471 10.6184 34.2345C10.218 34.1222 9.88338 33.8531 9.67613 33.477C9.46886 33.1008 9.41376 32.6627 9.52108 32.2432C9.62832 31.8236 9.88512 31.473 10.2442 31.2559L13.9481 29.0153V27.7325C13.6544 27.842 13.3365 27.8559 13.0292 27.7697C12.6287 27.6573 12.2941 27.3882 12.0869 27.0119C11.8796 26.6359 11.8245 26.1977 11.9318 25.7782C12.0391 25.3587 12.2958 25.008 12.6549 24.7909L13.9481 24.0087V21.9341L13.4375 21.6252L11.7227 22.6625V24.227C11.7228 24.6613 11.5614 25.0696 11.2682 25.3767C10.9752 25.6838 10.5855 25.853 10.1709 25.853C9.75633 25.853 9.36665 25.6838 9.07351 25.3767C8.84846 25.1409 8.701 24.8454 8.64471 24.5244L7.58439 25.1657V29.6469C7.58439 30.5434 6.88818 31.2729 6.03251 31.2729C5.17685 31.2729 4.48062 30.5434 4.48062 29.6469V27.0432L2.32855 28.3451C1.96947 28.5623 1.55129 28.6199 1.15091 28.5076C0.750531 28.3952 0.41594 28.1261 0.208686 27.75C0.00141462 27.3739 -0.0536994 26.9357 0.0536324 26.5162C0.16088 26.0966 0.417658 25.746 0.776733 25.5289L2.92874 24.2271L0.776666 22.9252C0.417658 22.7081 0.16088 22.3574 0.053565 21.9379C-0.0537668 21.5184 0.00134727 21.0801 0.208753 20.704C0.41594 20.328 0.750531 20.0589 1.15091 19.9465C1.55136 19.8342 1.96954 19.8918 2.32862 20.109L3.2245 20.651C3.4719 20.8006 3.55667 21.1321 3.41384 21.3913C3.27099 21.6506 2.95469 21.7392 2.70721 21.5897L1.81125 21.0477C1.69151 20.9752 1.55234 20.9561 1.41874 20.9935C1.28527 21.031 1.17375 21.1207 1.10464 21.246C1.03551 21.3715 1.01718 21.5175 1.05291 21.6574C1.08862 21.7972 1.17422 21.914 1.29389 21.9864L4.22198 23.7577C4.382 23.8545 4.48062 24.0334 4.48062 24.2271C4.48062 24.4207 4.382 24.5996 4.22198 24.6964L1.29396 26.4676C1.1743 26.5401 1.08869 26.6569 1.05291 26.7967C1.01718 26.9365 1.03551 27.0826 1.10464 27.208C1.17375 27.3334 1.28527 27.423 1.41874 27.4605C1.5522 27.4981 1.69166 27.4786 1.81125 27.4064L4.73927 25.6351C4.89929 25.5383 5.09656 25.5383 5.25657 25.6351C5.41659 25.732 5.51521 25.9108 5.51521 26.1045V29.647C5.51521 29.9459 5.74724 30.189 6.03251 30.189C6.31779 30.189 6.5498 29.9459 6.5498 29.647V24.8529C6.5498 24.6592 6.64844 24.4803 6.80845 24.3835L8.87762 23.1319C9.03765 23.035 9.23491 23.035 9.39492 23.1319C9.55494 23.2287 9.65357 23.4076 9.65357 23.6012V24.2271C9.65357 24.3719 9.7073 24.5079 9.80503 24.6103C9.90277 24.7127 10.0326 24.769 10.1709 24.769C10.3091 24.769 10.439 24.7127 10.5367 24.6103C10.6344 24.5079 10.6882 24.3719 10.6882 24.2271V22.3496C10.6882 22.1559 10.7868 21.9771 10.9468 21.8802L13.1788 20.5299C13.3389 20.4331 13.5361 20.4331 13.6961 20.5299L14.724 21.1517C14.884 21.2486 14.9827 21.4274 14.9827 21.6211V24.3215C14.9827 24.5152 14.884 24.694 14.724 24.7909L13.1721 25.7296C13.0525 25.802 12.9669 25.9189 12.9311 26.0587C12.8954 26.1985 12.9137 26.3446 12.9828 26.47C13.0519 26.5953 13.1635 26.685 13.297 26.7225C13.4302 26.76 13.5698 26.7407 13.6894 26.6684L14.2067 26.3554C14.3668 26.2586 14.564 26.2586 14.724 26.3554C14.884 26.4523 14.9827 26.6311 14.9827 26.8248V29.3282C14.9827 29.5219 14.884 29.7007 14.724 29.7976L10.7614 32.1946C10.6417 32.267 10.5562 32.384 10.5204 32.5237C10.4846 32.6635 10.503 32.8096 10.5721 32.935C10.7146 33.1938 11.0316 33.2827 11.2787 33.1334L14.2067 31.3621C14.3668 31.2653 14.564 31.2653 14.724 31.3621C14.884 31.459 14.9827 31.6378 14.9827 31.8315V35.374C14.9827 35.6728 15.2147 35.9159 15.5 35.9159C15.7852 35.9159 16.0173 35.6728 16.0173 35.374V31.8315C16.0173 31.6378 16.1159 31.459 16.2759 31.3621C16.4359 31.2653 16.6332 31.2653 16.7932 31.3621L19.7212 33.1334C19.8409 33.2058 19.9801 33.2249 20.1138 33.1876C20.2472 33.1501 20.3587 33.0604 20.4279 32.9351C20.497 32.8096 20.5153 32.6636 20.4796 32.5237C20.4438 32.3839 20.3582 32.267 20.2386 32.1946L16.2759 29.7976C16.1159 29.7007 16.0173 29.5219 16.0173 29.3282V26.8248C16.0173 26.6311 16.1159 26.4523 16.2759 26.3554C16.4359 26.2586 16.6332 26.2586 16.7932 26.3554L17.3105 26.6683C17.3355 26.6834 17.3635 26.6967 17.3963 26.709C17.6311 26.7969 17.8922 26.6966 18.0171 26.47C18.0862 26.3445 18.1046 26.1985 18.0688 26.0586C18.0331 25.9188 17.9474 25.8019 17.8279 25.7295L16.2759 24.7908C16.1159 24.694 16.0173 24.5151 16.0173 24.3214V21.621C16.0173 21.4273 16.1159 21.2485 16.2759 21.1516L17.3038 20.5299C17.4638 20.433 17.6611 20.433 17.8211 20.5299L20.0531 21.8802C20.2131 21.977 20.3118 22.1558 20.3118 22.3495V24.227C20.3118 24.5259 20.5438 24.769 20.8291 24.769C20.9673 24.769 21.0972 24.7126 21.195 24.6102C21.2926 24.5079 21.3464 24.3718 21.3464 24.2271V23.6012C21.3464 23.4075 21.445 23.2286 21.605 23.1318C21.765 23.035 21.9623 23.035 22.1223 23.1318L24.1915 24.3834C24.3515 24.4803 24.4501 24.6591 24.4501 24.8528V29.6469C24.4501 29.9458 24.6821 30.1889 24.9674 30.1889C25.2527 30.1889 25.4847 29.9458 25.4847 29.6469V26.1044C25.4847 25.9108 25.5833 25.7319 25.7434 25.6351C25.9034 25.5382 26.1006 25.5382 26.2606 25.6351L29.1887 27.4063C29.3083 27.4786 29.4475 27.498 29.5812 27.4604C29.7147 27.423 29.8262 27.3333 29.8953 27.2079C29.9644 27.0826 29.9828 26.9365 29.947 26.7967C29.9113 26.6568 29.8256 26.54 29.706 26.4676L26.7779 24.6963C26.6179 24.5995 26.5193 24.4207 26.5193 24.227C26.5193 24.0333 26.6179 23.8544 26.7779 23.7576L29.706 21.9864C29.8257 21.914 29.9112 21.797 29.947 21.6573C29.9828 21.5175 29.9645 21.3714 29.8954 21.2461C29.8262 21.1206 29.7146 21.031 29.5812 20.9935C29.4478 20.9559 29.3083 20.9751 29.1887 21.0477L25.2261 23.4447C25.0661 23.5415 24.8688 23.5415 24.7088 23.4447L22.6396 22.193C22.4796 22.0962 22.3809 21.9173 22.3809 21.7236C22.3809 21.53 22.4796 21.3511 22.6396 21.2543L23.1569 20.9413C23.182 20.9261 23.207 20.9074 23.2332 20.884C23.4236 20.7148 23.4711 20.4276 23.3462 20.201C23.2771 20.0756 23.1656 19.9859 23.0321 19.9484C22.8986 19.911 22.7592 19.9303 22.6397 20.0026L21.0877 20.9413C20.9277 21.0382 20.7304 21.0382 20.5704 20.9413L18.3384 19.5911C18.1784 19.4943 18.0798 19.3154 18.0798 19.1218V17.8782C18.0798 17.6845 18.1784 17.5056 18.3384 17.4088L20.5703 16.0585C20.7304 15.9617 20.9276 15.9617 21.0876 16.0585L22.6395 16.9972C22.7591 17.0696 22.8985 17.0888 23.032 17.0514C23.1655 17.014 23.277 16.9242 23.3462 16.7989C23.4153 16.6735 23.4337 16.5274 23.3979 16.3875C23.3622 16.2477 23.2765 16.1309 23.1569 16.0586L22.6395 15.7456C22.4795 15.6488 22.3809 15.4699 22.3809 15.2762C22.3809 15.0826 22.4795 14.9037 22.6395 14.8069L24.7087 13.5552C24.8687 13.4583 25.066 13.4583 25.226 13.5552L29.1886 15.9522C29.3083 16.0245 29.4477 16.0438 29.5811 16.0064C29.7146 15.969 29.8261 15.8792 29.8952 15.7539C29.9643 15.6285 29.9827 15.4825 29.947 15.3426C29.9112 15.2027 29.8256 15.0859 29.7059 15.0135L26.7779 13.2422C26.6179 13.1454 26.5192 12.9665 26.5192 12.7729C26.5192 12.5792 26.6179 12.4003 26.7779 12.3035L29.7059 10.5323C29.8256 10.4599 29.9112 10.343 29.947 10.2032C29.9827 10.0633 29.9643 9.9173 29.8952 9.79199C29.8261 9.66654 29.7145 9.57686 29.5811 9.53935C29.4477 9.50184 29.3083 9.52114 29.1886 9.59355L26.2606 11.3648C26.1006 11.4616 25.9033 11.4616 25.7433 11.3648C25.5833 11.2679 25.4846 11.0891 25.4846 10.8954V7.35296C25.4846 7.20806 25.4309 7.07199 25.3332 6.96966C25.2355 6.86726 25.1056 6.81096 24.9674 6.81096C24.6821 6.81096 24.4501 7.05406 24.4501 7.35296V12.1471C24.4501 12.3407 24.3514 12.5196 24.1914 12.6164L22.1222 13.8681C21.9622 13.9649 21.765 13.9649 21.6049 13.8681C21.4449 13.7712 21.3463 13.5924 21.3463 13.3987V12.7729C21.3463 12.7427 21.3433 12.7104 21.337 12.6745C21.2924 12.4175 21.0787 12.2309 20.829 12.2309C20.6908 12.2309 20.5608 12.2873 20.4632 12.3896C20.3654 12.492 20.3117 12.6281 20.3117 12.7728V14.6503C20.3117 14.844 20.2131 15.0229 20.053 15.1197L17.821 16.47C17.661 16.5668 17.4637 16.5668 17.3037 16.47L16.2758 15.8482C16.1158 15.7514 16.0172 15.5725 16.0172 15.3788V12.6784C16.0172 12.4848 16.1158 12.3059 16.2758 12.2091L17.8277 11.2703C17.9474 11.1979 18.033 11.0811 18.0688 10.9412C18.1045 10.8015 18.0862 10.6554 18.017 10.53C17.9479 10.4046 17.8364 10.3149 17.7029 10.2774C17.5695 10.2397 17.4302 10.2591 17.3106 10.3315L16.7931 10.6445C16.6331 10.7413 16.4358 10.7413 16.2758 10.6445C16.1158 10.5477 16.0172 10.3688 16.0172 10.1751V7.67172C16.0172 7.47805 16.1158 7.29919 16.2758 7.20235L20.2384 4.8053C20.3581 4.73289 20.4437 4.61597 20.4795 4.4762C20.5153 4.33644 20.4969 4.19032 20.4278 4.06494C20.3587 3.93956 20.2471 3.84988 20.1137 3.81237C19.9801 3.77487 19.8408 3.79409 19.7212 3.8665L16.7931 5.6378C16.6331 5.73464 16.4358 5.73464 16.2758 5.6378C16.1158 5.54097 16.0172 5.36211 16.0172 5.16844V1.62598C16.0172 1.32709 15.7852 1.08398 15.4999 1.08398C15.2146 1.08398 14.9826 1.32709 14.9826 1.62598V5.16844C14.9826 5.36211 14.884 5.54097 14.724 5.6378C14.5639 5.73464 14.3667 5.73464 14.2067 5.6378L11.2786 3.86657C11.0318 3.71734 10.7146 3.80616 10.572 4.06494C10.5029 4.19032 10.4846 4.33637 10.5203 4.4762C10.556 4.61604 10.6417 4.73289 10.7613 4.8053L14.724 7.20235C14.884 7.29919 14.9826 7.47805 14.9826 7.67172V10.1752C14.9826 10.3689 14.884 10.5477 14.724 10.6446C14.5639 10.7414 14.3667 10.7414 14.2067 10.6446L13.6894 10.3317C13.5696 10.2592 13.4302 10.2399 13.2969 10.2775C13.1634 10.3149 13.0518 10.4047 12.9827 10.53C12.9136 10.6554 12.8953 10.8015 12.931 10.9413C12.9667 11.0811 13.0524 11.198 13.172 11.2704L14.724 12.2091C14.884 12.306 14.9826 12.4848 14.9826 12.6785V15.3789C14.9826 15.5726 14.884 15.7514 14.724 15.8483L13.6961 16.4701C13.536 16.5669 13.3388 16.5669 13.1788 16.4701L10.9467 15.1198C10.7867 15.0229 10.6881 14.8441 10.6881 14.6504V12.7729C10.6881 12.4741 10.4561 12.231 10.1708 12.231C10.0326 12.231 9.90263 12.2873 9.8049 12.3897C9.70723 12.4921 9.6535 12.6281 9.6535 12.7728V13.3988C9.6535 13.5924 9.55487 13.7713 9.39485 13.8681C9.23485 13.965 9.03758 13.965 8.87756 13.8681L6.80831 12.6165C6.64831 12.5197 6.54967 12.3408 6.54967 12.1471L6.54973 7.35303C6.54973 7.05414 6.31771 6.81104 6.03237 6.81104C5.89416 6.81104 5.76428 6.8674 5.66654 6.96973C5.56888 7.07206 5.51514 7.20813 5.51514 7.35288V10.8954C5.51514 11.0891 5.41652 11.2679 5.2565 11.3648C5.09649 11.4616 4.89922 11.4616 4.7392 11.3648L1.81119 9.59355C1.69144 9.52114 1.55198 9.50184 1.41867 9.53935C1.2852 9.57678 1.17368 9.66654 1.10455 9.79185C1.03545 9.9173 1.01711 10.0633 1.05283 10.2032C1.08856 10.343 1.17422 10.4599 1.29383 10.5323L4.22191 12.3035C4.38193 12.4003 4.48056 12.5792 4.48056 12.7729C4.48056 12.9665 4.38193 13.1454 4.22191 13.2422L1.29389 15.0135C1.17422 15.0859 1.08862 15.2027 1.05283 15.3426C1.01711 15.4824 1.03545 15.6285 1.10455 15.7538C1.17368 15.8792 1.2852 15.9689 1.41867 16.0064C1.55198 16.0438 1.69144 16.0246 1.81105 15.9522L5.77372 13.5552C5.93375 13.4583 6.13101 13.4583 6.29102 13.5552L8.36026 14.8069C8.52028 14.9037 8.61891 15.0826 8.61891 15.2762C8.61891 15.4699 8.52028 15.6488 8.36026 15.7456L7.84297 16.0585C7.72331 16.1309 7.63772 16.2477 7.60192 16.3875C7.56612 16.5274 7.58454 16.6735 7.65365 16.7989C7.72275 16.9242 7.83428 17.0139 7.96775 17.0514C8.10121 17.0888 8.24054 17.0696 8.3602 16.9972L9.91215 16.0585C10.0722 15.9617 10.2694 15.9617 10.4294 16.0585L12.6615 17.4087C12.8215 17.5056 12.9201 17.6844 12.9201 17.8781V19.1217C12.9201 19.3154 12.8215 19.4942 12.6615 19.5911L10.4294 20.9413C10.2694 21.0381 10.0722 21.0381 9.91215 20.9413L8.36026 20.0025C8.24067 19.9301 8.10114 19.9108 7.96781 19.9483C7.83428 19.9858 7.72275 20.0755 7.65365 20.2009C7.58454 20.3263 7.56612 20.4723 7.60192 20.6123C7.63758 20.7521 7.72324 20.8689 7.84283 20.9412L8.36026 21.2542C8.52028 21.351 8.61891 21.5299 8.61891 21.7236C8.61891 21.9172 8.52028 22.0961 8.36026 22.1929L6.29109 23.4446C6.13108 23.5415 5.93381 23.5415 5.77379 23.4446L4.49911 22.6736C4.25171 22.5239 4.16695 22.1924 4.30979 21.9332C4.45255 21.6739 4.76887 21.5852 5.01641 21.7348L6.03244 22.3494L7.09269 21.708C6.8555 21.4964 6.68493 21.2149 6.60257 20.8927C6.49533 20.4733 6.55042 20.0351 6.75769 19.6589C6.96495 19.2828 7.29961 19.0138 7.69999 18.9014C8.10039 18.7888 8.51857 18.8467 8.87756 19.0638L10.1708 19.8461L11.8855 18.8088V18.191L10.1708 17.1537L8.87756 17.936C8.51857 18.1531 8.10045 18.2108 7.69999 18.0984C7.29954 17.986 6.96488 17.717 6.75769 17.3408C6.55042 16.9647 6.49533 16.5266 6.60264 16.107C6.685 15.7849 6.8555 15.5034 7.09276 15.2918L6.03237 14.6503L2.32841 16.8909C1.96934 17.1081 1.55109 17.1658 1.15085 17.0534C0.750464 16.941 0.415806 16.672 0.208602 16.2958C-0.219227 15.5194 0.0355641 14.523 0.776598 14.0747L2.92867 12.7729L0.776598 11.471C0.417591 11.2539 0.16088 10.9032 0.053565 10.4837C-0.0537668 10.0642 0.00134727 9.626 0.208602 9.24985C0.415806 8.87379 0.750464 8.60481 1.15091 8.49237C1.55109 8.37992 1.96954 8.43759 2.32848 8.65482L4.48056 9.95669V7.35303C4.48049 6.91879 4.64189 6.51041 4.93502 6.20328C5.22816 5.89622 5.61778 5.72705 6.03251 5.72705C6.88811 5.72705 7.58432 6.4565 7.58432 7.35303L7.58425 11.8342L8.64457 12.4756C8.70093 12.1546 8.84832 11.859 9.07345 11.6232C9.36658 11.3161 9.75627 11.147 10.1708 11.147C11.0265 11.147 11.7227 11.8764 11.7227 12.7729V14.3375L13.4375 15.3747L13.9481 15.0659V12.9913L12.6548 12.209C12.2958 11.9919 12.0391 11.6413 11.9318 11.2217C11.8245 10.8023 11.8796 10.364 12.0869 9.9879C12.2941 9.61176 12.6287 9.34272 13.0292 9.23027C13.3366 9.14406 13.6545 9.15793 13.9481 9.26749V7.98463L10.2441 5.74396C9.88512 5.52687 9.62839 5.17624 9.52108 4.75667C9.41376 4.33724 9.46886 3.89902 9.67613 3.52288C9.88338 3.14673 10.218 2.87776 10.6184 2.76532C11.0187 2.65287 11.4371 2.71061 11.796 2.92777L13.9481 4.22963V1.62598C13.9481 0.729449 14.6443 0 15.5 0C16.3556 0 17.0518 0.729449 17.0518 1.62598V4.22963L19.204 2.92784C19.5629 2.71061 19.9812 2.6528 20.3816 2.76532C20.782 2.87769 21.1167 3.14681 21.3239 3.52302C21.5311 3.89909 21.5862 4.33724 21.4789 4.75674C21.3717 5.17632 21.1149 5.52695 20.7558 5.74403L17.0519 7.98463V9.26756C17.3455 9.15808 17.6635 9.14413 17.9709 9.23042C18.3713 9.34279 18.7059 9.61191 18.9131 9.98812C19.1204 10.3642 19.1755 10.8023 19.0682 11.2218C18.9609 11.6414 18.7042 11.992 18.3451 12.2091L17.0519 12.9914V15.066L17.5625 15.3749L19.2772 14.3376V12.773C19.2772 12.3387 19.4386 11.9304 19.7318 11.6233C20.0248 11.3162 20.4145 11.147 20.8291 11.147C21.5776 11.147 22.2182 11.7059 22.3542 12.4763L23.4156 11.8343V7.3531C23.4156 6.45657 24.1118 5.72712 24.9675 5.72712C25.382 5.72705 25.7718 5.89622 26.0649 6.20328C26.358 6.51048 26.5194 6.91886 26.5194 7.35324V9.95676L28.6715 8.65489C29.0304 8.43759 29.4487 8.37985 29.849 8.49244C30.2495 8.60481 30.5841 8.87386 30.7913 9.25007C30.9986 9.62607 31.0536 10.0642 30.9464 10.4838C30.8391 10.9034 30.5823 11.254 30.2233 11.4711L28.0712 12.7729L30.2233 14.0748C30.9644 14.5231 31.2192 15.5195 30.7913 16.2959C30.5841 16.672 30.2495 16.941 29.849 17.0535C29.4488 17.166 29.0304 17.1082 28.6715 16.891L24.9675 14.6504L23.9072 15.2918C24.1444 15.5034 24.3149 15.7849 24.3973 16.1071C24.5046 16.5266 24.4495 16.9648 24.2422 17.3409C24.035 17.7171 23.7003 17.986 23.2999 18.0985C22.8994 18.2109 22.4813 18.1532 22.1224 17.936L20.8291 17.1538L19.1144 18.1911V18.8089L20.8291 19.8462L22.1224 19.0639C22.4814 18.8467 22.8995 18.7889 23.2999 18.9014C23.7003 19.0138 24.035 19.2829 24.2422 19.659C24.6165 20.3382 24.475 21.1989 23.9061 21.7075L24.9675 22.3496L28.6715 20.109C29.0304 19.8918 29.4485 19.8342 29.8491 19.9465C30.2495 20.0588 30.5841 20.328 30.7913 20.7042C30.9987 21.0801 31.0538 21.5183 30.9464 21.9379C30.8392 22.3575 30.5823 22.7082 30.2232 22.9253L28.0712 24.2271Z" fill="white"/>
    <path fill-rule="evenodd" clip-rule="evenodd" d="M15.5 20.2856C15.4106 20.2856 15.3213 20.2614 15.2413 20.213L14.2134 19.5912C14.0534 19.4944 13.9548 19.3155 13.9548 19.1218V17.8782C13.9548 17.6846 14.0534 17.5057 14.2134 17.4089L15.2413 16.7871C15.4013 16.6903 15.5986 16.6903 15.7586 16.7871L16.7865 17.4089C16.9465 17.5057 17.0451 17.6846 17.0451 17.8782V19.1218C17.0451 19.3155 16.9465 19.4944 16.7865 19.5912L15.7586 20.213C15.6786 20.2614 15.5893 20.2856 15.5 20.2856ZM15.5 17.8823L14.9894 18.1911V18.8089L15.5 19.1178L16.0106 18.8089V18.1911L15.5 17.8823Z" fill="white"/>
</svg>
