<svg width="18" height="43" viewBox="0 0 18 43" fill="none" xmlns="http://www.w3.org/2000/svg">
    <path d="M17.055 1.41153L15.2174 1.21534C15.214 1.215 15.2106 1.21509 15.2073 1.21484C14.6067 0.959523 12.1464 0 9.09165 0C5.65922 0 2.75321 1.18746 0.454702 3.52945C0.329145 3.65736 0.2583 3.83322 0.2583 4.01698V6.30245C0.2583 6.67736 0.547272 6.98138 0.903973 6.98138H4.51819V8.97207C3.93793 9.28071 3.53834 9.91228 3.53834 10.6414V11.9199C3.44002 11.925 3.34386 11.9525 3.25752 12.0027C2.02408 12.7211 1.27505 14.6092 0.863719 16.0666C0.306702 18.0407 0 20.535 0 23.09V38.4215C0 39.3999 0.553901 40.2443 1.34901 40.6279V41.1287C1.34901 42.1604 2.14732 43 3.12868 43H12.0747C13.0559 43 13.8543 42.1606 13.8543 41.1287V40.6279C14.6494 40.2443 15.2033 39.3999 15.2033 38.4215V23.0901C15.2033 23.0827 15.2024 23.0755 15.2022 23.0681C15.1799 20.7757 13.7404 18.7726 11.6948 18.0999V14.3444C11.6948 13.5415 11.3218 12.829 10.7487 12.387V10.6416C10.7487 9.91639 10.3536 9.2876 9.77854 8.97711V7.03371L10.5625 6.77638L12.0849 9.54904C12.3915 10.1075 12.9631 10.4545 13.5769 10.4546C13.5768 10.4546 13.5769 10.4546 13.5769 10.4546C13.8777 10.4546 14.1752 10.3707 14.4368 10.2118C14.8351 9.96997 15.1201 9.57953 15.2391 9.11232C15.3581 8.6452 15.2969 8.15733 15.067 7.7385L13.9315 5.67038L15.2787 5.22821C15.2794 5.22795 15.28 5.22753 15.2807 5.22728L17.055 5.0379C17.5798 5.0153 18 4.55927 18 4.00212V2.44739C17.9999 1.89016 17.5797 1.4342 17.055 1.41153ZM12.563 41.1287C12.563 41.4119 12.344 41.6422 12.0747 41.6422H3.12861C2.85928 41.6422 2.64028 41.4119 2.64028 41.1287V40.8481H12.5629V41.1287H12.563ZM13.9119 35.3527H11.7714C11.4147 35.3527 11.1257 35.6566 11.1257 36.0316C11.1257 36.4067 11.4147 36.7106 11.7714 36.7106H13.9118V38.4217C13.9119 38.9371 13.563 39.3684 13.1006 39.4684C13.0961 39.4693 13.0916 39.4695 13.0872 39.4704C13.0214 39.4836 12.9569 39.4904 12.8956 39.4904H2.3077C2.24644 39.4904 2.1819 39.4837 2.11617 39.4704C2.11161 39.4695 2.10706 39.4693 2.10259 39.4684C1.64022 39.3684 1.29135 38.9371 1.29135 38.4217V36.7106H9.64795C10.0047 36.7106 10.2936 36.4067 10.2936 36.0316C10.2936 35.6566 10.0047 35.3527 9.64795 35.3527H1.29135V23.7691H13.9119V35.3527ZM9.82406 13.3814C9.82566 13.3823 9.82742 13.3828 9.82909 13.3836C10.1685 13.5569 10.4034 13.9219 10.4034 14.3444V18.6268C10.4034 18.9509 10.6213 19.2299 10.9239 19.2928C12.4298 19.6059 13.5762 20.8655 13.8493 22.4112H1.29957C1.31243 21.8262 1.34126 21.2595 1.38479 20.7144H3.02573C3.38243 20.7144 3.6714 20.4104 3.6714 20.0354C3.6714 19.6605 3.38243 19.3565 3.02573 19.3565H1.52776C1.57289 19.014 1.62305 18.6813 1.67904 18.3611H3.45056C3.80726 18.3611 4.09623 18.0572 4.09623 17.6822C4.09623 17.3072 3.80726 17.0033 3.45056 17.0033H1.96345C2.05019 16.6514 2.14332 16.3186 2.24188 16.0079H3.96716C4.32387 16.0079 4.61284 15.7039 4.61284 15.3289C4.61284 14.954 4.32387 14.65 3.96716 14.65H2.76879C3.08068 13.9977 3.41781 13.5276 3.75519 13.2758H9.38709C9.42391 13.2758 9.46057 13.278 9.49691 13.2823C9.50211 13.283 9.50706 13.2842 9.51225 13.2848C9.54444 13.289 9.57654 13.2944 9.60825 13.3021C9.61033 13.3025 9.61225 13.3032 9.61424 13.3037C9.68573 13.3213 9.75585 13.3471 9.82406 13.3814ZM4.82968 11.9179V10.6415C4.82968 10.3583 5.04877 10.128 5.31809 10.128H8.96913C9.23845 10.128 9.45746 10.3583 9.45746 10.6415V11.919C9.43406 11.9182 9.41065 11.9179 9.38717 11.9179H4.82968ZM13.9487 8.41752C14.0062 8.52216 14.0215 8.64419 13.9917 8.76085C13.9619 8.87759 13.8907 8.97518 13.7912 9.03564C13.7247 9.07604 13.6527 9.09645 13.5769 9.09645C13.4231 9.09645 13.2798 9.00969 13.2031 8.86994L11.8259 6.36166L12.6681 6.08518L13.9487 8.41752ZM14.4407 4.08081L12.7766 4.62704C12.7766 4.62704 12.7766 4.62704 12.7766 4.62704L10.6709 5.31815C10.6709 5.31815 10.6708 5.31815 10.6708 5.31824L8.94046 5.88631C8.67081 5.97474 8.48719 6.23736 8.48719 6.53433V8.77017H5.80946V6.30254C5.80946 5.92763 5.52048 5.6236 5.16378 5.6236H1.54957V4.30925C3.56789 2.35056 6.10386 1.35778 9.09165 1.35778C11.537 1.35778 13.6114 2.0436 14.4407 2.36114V4.08081ZM16.7086 3.7101L15.7319 3.81433V2.63518L16.7086 2.73941V3.7101Z" fill="white"/>
    <path d="M7.60159 33.663C9.76144 33.663 11.5187 31.8154 11.5187 29.5442C11.5187 27.2731 9.76152 25.4253 7.60159 25.4253C5.44173 25.4253 3.6845 27.273 3.6845 29.5442C3.6845 31.8154 5.44165 33.663 7.60159 33.663ZM7.60159 26.7833C9.04932 26.7833 10.2273 28.0219 10.2273 29.5443C10.2273 31.0666 9.0494 32.3052 7.60159 32.3052C6.15386 32.3052 4.97585 31.0666 4.97585 29.5443C4.97585 28.0219 6.15378 26.7833 7.60159 26.7833Z" fill="white"/>
</svg>
