<svg width="34" height="36" viewBox="0 0 34 36" fill="none" xmlns="http://www.w3.org/2000/svg">
    <path d="M30.9137 22.043V3.00234C30.9137 1.98281 30.1095 1.20234 29.059 1.20234H21.0173C21.0173 0.541406 20.4594 0 19.7784 0H11.1281C10.447 0 9.8892 0.541406 9.8892 1.20234H1.85468C0.804176 1.20234 0 1.98281 0 3.00234V34.2C0 35.2195 0.804176 36 1.85468 36H25.9655C30.4138 36 34 32.5195 34 28.2023C34 25.6922 32.7974 23.4703 30.9137 22.043ZM29.0518 2.39766C29.4213 2.39766 29.6676 2.63672 29.6676 2.99531V21.2695C29.2764 21.0727 28.8634 20.9039 28.4287 20.7703V4.80234C28.4287 4.14141 27.8709 3.6 27.1899 3.6H21.01V2.39766H29.0518ZM11.1281 1.20234H19.7856V4.79531H11.1281V1.20234ZM11.1281 5.99766H19.7856C20.4667 5.99766 21.0245 5.45625 21.0245 4.79531H27.2043V20.4891C27.1174 20.475 27.0305 20.468 26.9435 20.4539C26.9363 20.4539 26.929 20.4539 26.9218 20.4539C26.8566 20.4469 26.7841 20.4398 26.7189 20.4328C26.7045 20.4328 26.6827 20.4328 26.6682 20.4258C26.6103 20.4188 26.5523 20.4187 26.4944 20.4117C26.4726 20.4117 26.4509 20.4117 26.4291 20.4047C26.3712 20.4047 26.3132 20.3977 26.2553 20.3977C26.2335 20.3977 26.2118 20.3977 26.1901 20.3977C26.1176 20.3977 26.0379 20.3977 25.9582 20.3977C21.5099 20.3977 17.9237 23.8781 17.9237 28.1953C17.9237 28.2797 17.9237 28.357 17.931 28.4414C17.931 28.4555 17.931 28.4625 17.931 28.4766C17.9817 29.918 18.4309 31.2609 19.1843 32.4H3.70935V4.80234H9.8892C9.8892 5.46328 10.447 5.99766 11.1281 5.99766ZM1.85468 34.7977C1.48519 34.7977 1.23887 34.5586 1.23887 34.2V3.00234C1.23887 2.64375 1.48519 2.40469 1.85468 2.40469H9.8892V3.60703H3.70935C3.02834 3.60703 2.47049 4.14844 2.47049 4.80938V32.407C2.47049 33.068 3.02834 33.6094 3.70935 33.6094H20.1551C20.6043 34.0664 21.1114 34.4672 21.6693 34.8117H1.85468V34.7977ZM25.9655 34.7977C24.0021 34.7977 22.2344 33.9961 21.0028 32.7164C20.981 32.6672 20.9448 32.618 20.9013 32.5758C19.8581 31.4508 19.2495 30.0094 19.1771 28.5047C19.1771 28.4977 19.1771 28.4977 19.1771 28.4906C19.1698 28.3922 19.1698 28.2938 19.1698 28.1953C19.1698 24.532 22.1982 21.593 25.9727 21.593C26.0524 21.593 26.1321 21.593 26.2118 21.6C26.219 21.6 26.2263 21.6 26.2335 21.6C26.248 21.6 26.2698 21.6 26.2843 21.6C26.335 21.6 26.3929 21.607 26.4436 21.607C26.4944 21.607 26.5378 21.6141 26.5885 21.6211C26.5958 21.6211 26.603 21.6211 26.6103 21.6211C26.958 21.6562 27.2985 21.7195 27.6463 21.832C27.7187 21.8531 27.7912 21.8602 27.8636 21.8531C28.5157 22.0359 29.1387 22.3172 29.74 22.6898C31.573 23.8711 32.7756 25.8891 32.7756 28.1953C32.7684 31.8586 29.74 34.7977 25.9655 34.7977Z" fill="white"/>
    <path d="M30.0443 24.7781C29.7328 24.5391 29.3633 24.5953 29.1822 24.8977L25.7192 29.7L23.3066 27.7805C23.0603 27.5414 22.6256 27.5977 22.4445 27.8438C22.1982 28.0828 22.2561 28.5047 22.5097 28.6805L25.4801 31.0219C25.5453 31.0852 25.7264 31.1414 25.8496 31.1414C25.8496 31.1414 25.9148 31.1414 25.9148 31.2047C26.1031 31.2047 26.2263 31.0852 26.3495 30.9656L30.182 25.6289C30.4138 25.3195 30.3559 24.9609 30.0443 24.7781Z" fill="white"/>
    <path d="M7.17238 12.5367C6.24505 12.5367 5.56403 13.2539 5.56403 14.0977V16.4391C5.56403 17.3391 6.24505 18 7.17238 18H8.11421C8.38952 19.0336 9.36032 19.8 10.505 19.8C11.6497 19.8 12.6205 19.0336 12.8958 18H17.9962C18.2715 19.0336 19.2423 19.8 20.387 19.8C21.5316 19.8 22.5025 19.0336 22.7778 18H23.7196C24.6469 18 25.3279 17.3391 25.3859 16.4391V14.0977C25.3859 13.1977 24.6469 12.5367 23.7775 12.5367H22.459L20.0682 9.29531C19.6987 8.75391 19.0756 8.45859 18.4019 8.45859H15.7285C15.6416 8.42344 15.5474 8.39531 15.4387 8.39531C15.3301 8.39531 15.2286 8.41641 15.1489 8.45859H12.4756C11.7946 8.45859 11.1788 8.76094 10.8093 9.29531L8.4185 12.5367H7.17238ZM10.5123 18.5977C9.83124 18.5977 9.27339 18.0562 9.27339 17.3953C9.27339 16.7344 9.83124 16.193 10.5123 16.193C11.1933 16.193 11.7511 16.7344 11.7511 17.3953C11.7511 18.0562 11.1933 18.5977 10.5123 18.5977ZM20.4014 18.5977C19.7204 18.5977 19.1626 18.0562 19.1626 17.3953C19.1626 16.7344 19.7204 16.193 20.4014 16.193C21.0825 16.193 21.6403 16.7344 21.6403 17.3953C21.6403 18.0633 21.0825 18.5977 20.4014 18.5977ZM16.0763 9.59766H18.3657C18.6772 9.59766 18.9235 9.71719 19.0467 9.9L20.981 12.5367H16.0763V9.59766ZM11.7439 9.9C11.9322 9.71719 12.1786 9.59766 12.4249 9.59766H14.8374V12.5367H9.87471L11.7439 9.9ZM22.2561 13.8023C22.3576 13.8023 22.4517 13.7812 22.5314 13.7391H23.7993C23.9876 13.7391 24.1688 13.9219 24.1688 14.0977V16.4391C24.1688 16.6219 23.9804 16.7977 23.7993 16.7977H22.8067C22.4952 15.7781 21.691 14.9977 20.5174 14.9977C20.4956 14.9977 20.4739 14.9977 20.4522 14.9977C20.4304 14.9977 20.4159 14.9977 20.3942 14.9977C19.2495 14.9977 18.2787 15.7641 18.0034 16.7977H12.9755C12.664 15.7781 11.7366 14.9977 10.563 14.9977C10.5485 14.9977 10.5412 14.9977 10.5267 14.9977C10.5195 14.9977 10.505 14.9977 10.4978 14.9977C9.35308 14.9977 8.38227 15.7641 8.10697 16.7977H7.17238C6.98402 16.7977 6.8029 16.6148 6.8029 16.4391V14.0977C6.8029 13.9148 6.99126 13.7391 7.17238 13.7391H8.37503C8.45472 13.7742 8.5489 13.8023 8.65033 13.8023H22.2561Z" fill="white"/>
    <path d="M15.4532 22.8023H6.17984C5.81036 22.8023 5.56403 23.0414 5.56403 23.4C5.56403 23.7586 5.81036 23.9977 6.17984 23.9977H15.4532C15.8227 23.9977 16.069 23.7586 16.069 23.4C16.069 23.0414 15.83 22.8023 15.4532 22.8023Z" fill="white"/>
    <path d="M15.4532 25.7977H6.17984C5.81036 25.7977 5.56403 26.0367 5.56403 26.3953C5.56403 26.7539 5.81036 26.993 6.17984 26.993H15.4532C15.8227 26.993 16.069 26.7539 16.069 26.3953C16.069 26.0367 15.83 25.7977 15.4532 25.7977Z" fill="white"/>
    <path d="M15.4532 28.8H6.17984C5.81036 28.8 5.56403 29.0391 5.56403 29.3977C5.56403 29.7563 5.81036 29.9953 6.17984 29.9953H15.4532C15.8227 29.9953 16.069 29.7563 16.069 29.3977C16.069 29.0391 15.83 28.8 15.4532 28.8Z" fill="white"/>
</svg>
