<svg width="30" height="31" viewBox="0 0 30 31" fill="none" xmlns="http://www.w3.org/2000/svg">
    <path d="M16.45 13.1453L19.2725 10.2288C19.5014 9.99235 19.8723 9.99235 20.1011 10.2288C20.3299 10.4653 20.3299 10.8487 20.1011 11.0851L17.2787 14.0016C17.1642 14.1199 17.0143 14.179 16.8644 14.179C16.7144 14.179 16.5645 14.1199 16.45 14.0016C16.2212 13.7651 16.2212 13.3818 16.45 13.1453Z" fill="white"/>
    <path d="M9.89612 19.9178L12.7211 16.9986C12.95 16.7621 13.321 16.7621 13.5498 16.9986C13.7786 17.2351 13.7786 17.6185 13.5498 17.8549L10.7248 20.7741C10.6104 20.8923 10.4604 20.9514 10.3104 20.9514C10.1605 20.9514 10.0106 20.8923 9.89612 20.7741C9.66731 20.5376 9.66731 20.1542 9.89612 19.9178Z" fill="white"/>
    <path d="M14.9996 14.8945H15C15.3236 14.8945 15.5859 15.1656 15.5859 15.5C15.5859 15.8344 15.3236 16.1054 15 16.1054C14.6764 16.1054 14.4139 15.8344 14.4139 15.5C14.4139 15.1656 14.676 14.8945 14.9996 14.8945Z" fill="white"/>
    <path fill-rule="evenodd" clip-rule="evenodd" d="M27.3689 20.831C26.2474 20.1619 24.9563 19.9446 23.698 20.2065L19.1433 15.4999L23.7014 10.7898C24.0417 10.8596 24.3832 10.8936 24.7221 10.8935C26.5715 10.8935 28.3353 9.88204 29.293 8.16795C30.1709 6.59669 30.235 4.6837 29.4643 3.05074C29.2086 2.50909 28.8781 2.22718 28.4819 2.21289C28.0922 2.19927 27.7561 2.442 27.4804 2.9354L26.5722 4.56091C26.4175 4.83779 26.3381 4.83785 26.2066 4.83785H25.5328C25.1125 4.83785 25.0403 4.79474 24.8301 4.41862L24.4933 3.81576C24.4252 3.694 24.3877 3.62685 24.5425 3.35003L25.4507 1.72452C25.7264 1.23106 25.7616 0.807952 25.5555 0.467011C25.3454 0.119652 24.9442 -0.0352282 24.3621 0.00685214C22.6083 0.133638 21.0371 1.14738 20.1592 2.7187C19.5116 3.87764 19.3013 5.21191 19.5549 6.51198L15.0001 11.2186L10.442 6.50847C10.8782 4.23831 9.86748 1.9015 7.90475 0.730512C6.384 -0.176606 4.53272 -0.242784 2.95244 0.553654C2.42832 0.817821 2.1555 1.15931 2.14168 1.56867C2.12808 1.97046 2.36334 2.31867 2.84088 2.60354L4.4139 3.54202C4.6819 3.70193 4.6819 3.77937 4.6819 3.9199V4.61613C4.6819 5.05043 4.64019 5.12509 4.2762 5.34221L3.69272 5.6903C3.5749 5.76058 3.50995 5.79933 3.24201 5.6395L1.66894 4.70102C1.1914 4.41608 0.781942 4.37969 0.451999 4.5927C0.115845 4.80976 -0.0339804 5.22463 0.00668388 5.8258C0.12938 7.63816 1.11042 9.2618 2.63105 10.169C3.7526 10.8381 5.04372 11.0554 6.30197 10.7934L10.8567 15.5L6.29857 20.21C4.10182 19.7593 1.84027 20.8037 0.707 22.8319C-0.170915 24.4031 -0.234958 26.3161 0.535788 27.949C0.791434 28.4907 1.1219 28.7726 1.51806 28.7869C1.90736 28.8014 2.24386 28.5578 2.51961 28.0644L3.42782 26.4389C3.58256 26.162 3.6575 26.162 3.79356 26.162H4.46727C4.88751 26.162 4.95976 26.2051 5.16993 26.5812L5.50673 27.1841C5.57475 27.3059 5.61224 27.373 5.45757 27.6498L4.54936 29.2753C4.27362 29.7688 4.23841 30.1919 4.4446 30.5328C4.63222 30.8431 4.97241 30.9997 5.4574 30.9997C5.51546 30.9997 5.5757 30.9975 5.63787 30.993C7.39176 30.8662 8.96302 29.8524 9.84088 28.2812C10.4884 27.1223 10.6988 25.788 10.4452 24.4879L14.9999 19.7814L19.5581 24.4915C19.1219 26.7616 20.1326 29.0985 22.0954 30.2694C22.9099 30.7554 23.8191 31 24.731 31C25.5213 30.9999 26.3137 30.8161 27.0474 30.4464C27.5716 30.1822 27.8444 29.8407 27.8582 29.4313C27.8718 29.0296 27.6366 28.6813 27.159 28.3964L25.5859 27.458C25.318 27.2981 25.318 27.2206 25.318 27.0801V26.3839C25.318 25.9496 25.3597 25.8749 25.7237 25.6578L26.3071 25.3097C26.4249 25.2394 26.4898 25.2007 26.7578 25.3605L28.3309 26.299C28.8084 26.5839 29.2178 26.6203 29.5479 26.4073C29.884 26.1902 30.0339 25.7753 29.9931 25.1742C29.8706 23.3617 28.8895 21.7382 27.3689 20.831ZM6.90022 9.69895C6.75203 9.54588 6.53594 9.48618 6.33361 9.54243C5.27412 9.83711 4.16727 9.68714 3.21711 9.1203C2.05308 8.42582 1.29558 7.19126 1.18091 5.80806L2.65619 6.68824C3.02275 6.90693 3.58971 7.15015 4.27878 6.73904L4.86226 6.39095C5.58507 5.95967 5.85384 5.47868 5.85384 4.61619V3.9199C5.85379 3.09779 5.36646 2.71198 4.99989 2.49328L3.52461 1.61323C4.7412 1.02417 6.15473 1.08483 7.3187 1.77931C8.9233 2.73668 9.70998 4.69538 9.23162 6.54262C9.17753 6.75151 9.23531 6.97438 9.38332 7.12726L14.1713 12.0749L13.3428 12.9311L10.7275 10.2287C10.4987 9.99224 10.1277 9.99224 9.89883 10.2287C9.66996 10.4651 9.67002 10.8485 9.89883 11.085L12.5141 13.7874L11.6854 14.6437L6.90022 9.69895ZM9.38613 23.8697C9.23795 24.0228 9.18017 24.2461 9.23466 24.4552C9.51978 25.5501 9.3747 26.6938 8.82609 27.6757C8.15407 28.8784 6.9594 29.6612 5.62076 29.7797L6.47254 28.2553C6.68412 27.8765 6.91944 27.2906 6.5217 26.5786L6.18484 25.9757C5.76748 25.2288 5.30206 24.951 4.46739 24.951H3.79356C2.99803 24.951 2.62461 25.4546 2.41291 25.8334L1.56118 27.3578C0.991181 26.1007 1.04989 24.6401 1.72191 23.4374C2.6484 21.7792 4.54386 20.9662 6.33156 21.4607C6.53371 21.5164 6.7494 21.4569 6.89735 21.3039L20.6139 7.13017C20.762 6.97705 20.8198 6.75381 20.7653 6.54468C20.4802 5.4498 20.6252 4.30613 21.1739 3.32429C21.846 2.12146 23.0407 1.33871 24.3793 1.22022L23.5275 2.74462C23.3159 3.1234 23.0805 3.70925 23.4783 4.42129L23.8152 5.02422C24.2325 5.77119 24.698 6.04886 25.5327 6.04886H26.2065C27.0021 6.0488 27.3754 5.54523 27.5871 5.1665L28.4389 3.64205C29.0089 4.89919 28.9502 6.35971 28.2781 7.56254C27.3517 9.22068 25.456 10.0334 23.6684 9.53922C23.4662 9.48334 23.2506 9.5431 23.1026 9.69598L9.38613 23.8697ZM27.3438 24.3117C26.9772 24.093 26.41 23.85 25.7213 24.2609L25.1378 24.609C24.415 25.0402 24.1462 25.5212 24.1462 26.3836V27.0799C24.1462 27.902 24.6335 28.2878 25.0001 28.5066L26.4754 29.3867C25.2588 29.9758 23.8454 29.9151 22.6814 29.2206C21.0767 28.2633 20.2901 26.3045 20.7684 24.4573C20.8225 24.2484 20.7647 24.0256 20.6167 23.8727L15.8287 18.925L16.6574 18.0687L19.2753 20.774C19.3898 20.8923 19.5397 20.9513 19.6897 20.9513C19.8396 20.9513 19.9895 20.8922 20.104 20.774C20.3328 20.5376 20.3328 20.1542 20.104 19.9177L17.486 17.2124L18.3146 16.3562L23.0998 21.3009C23.2479 21.454 23.4639 21.5137 23.6664 21.4575C24.7257 21.1628 25.8327 21.3127 26.7829 21.8797C27.9469 22.5741 28.7045 23.8086 28.8191 25.1918L27.3438 24.3117Z" fill="white"/>
</svg>
