<svg width="523" height="537" viewBox="0 0 523 537" fill="none" xmlns="http://www.w3.org/2000/svg">
    <path d="M375.753 227.322L340.162 245.883C344.18 252.198 347.816 258.895 350.878 265.783C362.741 257.555 372.691 242.056 375.753 227.322Z"
          fill="#ED2823"/>
    <path d="M389.913 230.193C385.703 250.093 372.117 269.802 356.044 279.561C359.871 291.042 362.359 303.096 363.507 315.534C363.507 315.917 363.507 316.491 363.698 316.874C364.081 320.701 364.272 324.719 364.272 328.737C364.272 328.737 364.272 328.737 364.272 328.929C364.272 414.844 294.621 484.495 208.705 484.495C122.79 484.495 53.1387 414.844 53.1387 328.929C53.1387 243.013 122.79 173.362 208.705 173.362C209.279 173.362 209.662 173.362 210.236 173.362C212.15 173.362 213.872 173.362 215.785 173.553C217.699 173.553 219.612 173.745 221.717 173.936C221.908 173.936 222.291 173.936 222.483 173.936C226.884 174.319 231.285 174.893 235.686 175.658C240.852 158.437 250.228 141.789 262.092 128.204C245.062 123.611 227.075 121.315 208.705 121.315C93.896 121.315 0.900391 214.311 0.900391 328.929C0.900391 443.547 93.896 536.542 208.514 536.542C323.132 536.542 416.128 443.547 416.128 328.929C416.128 292.381 406.752 258.321 390.296 228.47L389.913 230.193Z"
          fill="#ED2823"/>
    <path d="M298.831 116.914C277.017 128.395 258.074 153.271 249.846 179.103C284.289 188.479 313.756 209.336 334.231 237.464L379.389 213.928L383.025 212.015C396.993 204.743 409.048 187.139 412.492 170.492L336.718 209.336C335.953 209.718 335.187 209.91 334.422 209.91C332.508 209.91 330.786 208.953 329.83 207.04C328.49 204.552 329.447 201.49 332.126 200.151L416.128 156.906L419.764 154.993C433.732 147.721 445.787 130.117 449.231 113.47L354.131 161.69C353.366 162.073 352.6 162.264 351.835 162.264C349.921 162.264 348.199 161.307 347.242 159.394C345.903 156.906 347.051 153.845 349.539 152.505L452.867 100.076L456.503 98.162C470.471 90.8908 482.526 73.2867 485.97 56.6393L371.735 114.044C370.97 114.427 370.204 114.618 369.439 114.618C367.525 114.618 365.803 113.661 364.846 111.748C363.507 109.26 364.655 106.199 367.143 104.859L489.797 43.2449L493.433 41.3314C507.401 34.0601 519.456 16.456 522.901 0L298.831 116.914Z"
          fill="#ED2823"/>
</svg>
