<svg width="525" height="499" viewBox="0 0 525 499" fill="none" xmlns="http://www.w3.org/2000/svg">
    <path d="M378.824 130.447L346.854 147.119C350.463 152.791 353.729 158.807 356.479 164.995C367.136 157.604 376.074 143.682 378.824 130.447Z" fill="#ED2823"/>
    <path d="M391.61 190.605C387.372 210.638 373.696 230.478 357.515 240.302C361.368 251.86 363.872 263.995 365.028 276.516C365.028 276.901 365.028 277.479 365.22 277.865C365.606 281.717 365.798 285.762 365.798 289.807C365.798 289.807 365.798 289.807 365.798 290C365.798 376.489 295.682 446.605 209.193 446.605C122.703 446.605 52.5871 376.489 52.5871 290C52.5871 203.511 122.703 133.394 209.193 133.394C209.771 133.394 210.156 133.394 210.734 133.394C212.66 133.394 214.394 133.394 216.32 133.587C218.246 133.587 220.172 133.78 222.291 133.972C222.484 133.972 222.869 133.972 223.062 133.972C227.492 134.358 231.923 134.935 236.353 135.706C241.554 118.37 250.993 101.611 262.935 87.9346C245.792 83.3115 227.685 81 209.193 81C93.6166 81 0 174.617 0 290C0 405.383 93.6166 499 209 499C324.383 499 418 405.383 418 290C418 253.208 408.561 218.921 391.995 188.871L391.61 190.605Z" fill="white"/>
    <path d="M299.334 76.6704C277.365 88.2256 258.287 113.262 250 139.261C284.688 148.698 314.366 169.69 334.986 198L380.466 174.312L384.128 172.386C398.196 165.068 410.336 147.35 413.805 130.595L337.491 169.69C336.72 170.075 335.95 170.268 335.179 170.268C333.252 170.268 331.517 169.305 330.554 167.379C329.205 164.875 330.168 161.794 332.866 160.446L417.467 116.921L421.128 114.995C435.196 107.677 447.337 89.9589 450.806 73.2039L355.028 121.736C354.257 122.121 353.486 122.313 352.715 122.313C350.788 122.313 349.054 121.351 348.09 119.425C346.741 116.921 347.898 113.84 350.403 112.492L454.467 59.7228L458.129 57.7969C472.197 50.4786 484.338 32.7607 487.807 16.0056L372.758 73.7816C371.987 74.1668 371.216 74.3594 370.445 74.3594C368.518 74.3594 366.783 73.3965 365.82 71.4706C364.471 68.967 365.627 65.8856 368.132 64.5375L491.661 2.52458L495.322 0.598713C509.39 -6.71958 521.531 -24.4375 525 -41L299.334 76.6704Z" fill="white"/>
</svg>
