<svg width="88" height="88" viewBox="0 0 88 88" fill="none" xmlns="http://www.w3.org/2000/svg">
    <path d="M66.319 78.5011L64.2869 75.453L61.8462 77.0801L63.7983 80.0083C58.2751 83.0399 52.0305 84.7865 45.4665 85.0155V82.1333H42.5331V85.0294C35.9146 84.7955 29.6899 82.9948 24.2224 79.977L26.1536 77.0801L23.7129 75.453L21.707 78.4619C16.8458 75.3064 12.6934 71.154 9.53792 66.2928L12.5468 64.2869L10.9197 61.8462L8.02285 63.7775C5.00518 58.3099 3.20448 52.0852 2.97055 45.4667H7.33333V42.5333H2.97055C3.20448 35.9148 5.00518 29.6901 8.02303 24.2226L10.9199 26.1538L12.547 23.7131L9.5381 21.7072C12.6936 16.846 16.8459 12.6936 21.7072 9.5381L23.7131 12.547L26.1538 10.9199L24.2225 8.02303C29.6901 5.00537 35.9148 3.20448 42.5333 2.97055V5.86667H45.4667V2.9843C52.0305 3.21328 58.2752 4.9599 63.7985 7.9915L61.8464 10.9197L64.2871 12.5468L66.3192 9.49868C72.397 13.4317 77.4444 18.98 80.8194 25.7904L83.4476 24.4884C75.9623 9.38373 60.8474 0 44 0C19.7384 0 0 19.7384 0 44C0 68.2616 19.7384 88 44 88C60.8474 88 75.9623 78.6163 83.4475 63.5114L80.8192 62.2094C77.4442 69.0201 72.397 74.5683 66.319 78.5011Z" fill="white"/>
    <path d="M86.5333 33.7333H73.5051C69.8335 27.3775 63.1046 23.4667 55.7332 23.4667C48.0618 23.4667 41.0857 27.7026 37.528 34.5219C37.2909 34.9765 37.3082 35.5216 37.5745 35.9607C37.8402 36.399 38.3158 36.6669 38.8285 36.6669H53.6593L60.9926 44.0002L53.6593 51.3335H38.8285C38.3158 51.3335 37.8402 51.6014 37.5745 52.0397C37.3082 52.4788 37.2909 53.0237 37.528 53.4785C41.0859 60.2974 48.0619 64.5333 55.7333 64.5333C63.1046 64.5333 69.8335 60.6225 73.5053 54.2667H86.5333C87.3433 54.2667 88 53.61 88 52.8V35.2C88 34.39 87.3433 33.7333 86.5333 33.7333ZM85.0667 51.3333H72.638C72.0916 51.3333 71.5902 51.6369 71.3374 52.1218C68.2875 57.9683 62.3082 61.6 55.7333 61.6C50.0049 61.6 44.7291 58.8436 41.4476 54.2667H54.2667C54.6555 54.2667 55.0286 54.1119 55.3036 53.8369L64.1036 45.0369C64.6765 44.464 64.6765 43.5358 64.1036 42.9629L55.3036 34.1629C55.0286 33.8879 54.6555 33.7332 54.2667 33.7332H41.4476C44.7289 29.1562 50.0049 26.3998 55.7333 26.3998C62.3082 26.3998 68.2875 30.0315 71.3374 35.878C71.5902 36.3629 72.0914 36.6665 72.638 36.6665H85.0667V51.3333Z" fill="white"/>
    <path d="M44 39.6C41.5738 39.6 39.6 41.5738 39.6 44C39.6 46.4262 41.5738 48.4 44 48.4C46.4262 48.4 48.4 46.4262 48.4 44C48.4 41.5738 46.4262 39.6 44 39.6ZM44 45.4667C43.1915 45.4667 42.5333 44.8085 42.5333 44C42.5333 43.1915 43.1915 42.5333 44 42.5333C44.8085 42.5333 45.4667 43.1915 45.4667 44C45.4667 44.8085 44.8085 45.4667 44 45.4667Z" fill="white"/>
    <path d="M44 71.8667C43.0091 71.8667 42.0312 71.8104 41.0667 71.709V61.0227C41.0667 60.3539 40.614 59.7694 39.9659 59.6026C38.432 59.2073 36.9688 58.5886 35.616 57.7628C35.0394 57.4105 34.2947 57.4992 33.8149 57.9777L26.2918 65.5008C24.9099 64.3605 23.6394 63.0901 22.499 61.708L30.0221 54.1849C30.5012 53.7058 30.5901 52.9617 30.237 52.3838C29.4112 51.031 28.7925 49.568 28.3972 48.0339C28.2304 47.3858 27.6459 46.9332 26.9771 46.9332H16.291C16.1896 45.9686 16.1333 44.9907 16.1333 43.9998C16.1333 43.0089 16.1896 42.031 16.291 41.0665H26.9773C27.6461 41.0665 28.2306 40.6138 28.3974 39.9658C28.7927 38.4311 29.4114 36.9673 30.2372 35.6165C30.5903 35.0379 30.5013 34.2938 30.0223 33.8147L22.4992 26.2917C23.6395 24.9097 24.9099 23.6392 26.292 22.4988L33.8151 30.0219C34.098 30.3048 34.4733 30.4517 34.8528 30.4517C35.1157 30.4517 35.3798 30.3814 35.6169 30.2368C36.9675 29.4111 38.4314 28.7923 39.9661 28.3971C40.6142 28.2302 41.0668 27.6458 41.0668 26.977V16.291C42.0314 16.1896 43.0093 16.1333 44.0002 16.1333C50.0859 16.1333 55.8673 18.0598 60.7193 21.7043L62.4809 19.3582C57.1169 15.3298 50.7261 13.2 44 13.2C27.0165 13.2 13.2 27.0166 13.2 44C13.2 60.9835 27.0165 74.8 44 74.8C50.7261 74.8 57.1169 72.6702 62.4809 68.6418L60.7193 66.2957C55.8672 69.9402 50.0857 71.8667 44 71.8667ZM38.1333 16.7669V25.8759C37.0856 26.2147 36.0708 26.6429 35.099 27.1577L28.6849 20.7442C31.5179 18.8722 34.7081 17.5043 38.1333 16.7669ZM20.7442 28.6849L27.1577 35.099C26.6427 36.0708 26.2145 37.0856 25.8758 38.1333H16.7669C17.5043 34.7081 18.8721 31.5179 20.7442 28.6849ZM20.7442 59.3151C18.8723 56.4821 17.5043 53.2919 16.7669 49.8667H25.8758C26.2146 50.9137 26.6429 51.9284 27.1577 52.901L20.7442 59.3151ZM38.1333 71.2331C34.7081 70.4957 31.5179 69.1279 28.6849 67.2558L35.099 60.8423C36.0716 61.3573 37.0863 61.7855 38.1333 62.1242V71.2331Z" fill="white"/>
</svg>
