<svg width="84" height="85" viewBox="0 0 84 85" fill="none" xmlns="http://www.w3.org/2000/svg">
    <path d="M29.8134 60.8969C29.6948 60.8627 29.5734 60.8434 29.4512 60.8368C31.2483 58.9254 32.3551 56.3434 32.3551 53.5032V44.7689C32.3551 44.6891 32.3475 44.6112 32.3369 44.5345C32.3477 44.3768 32.3551 44.2181 32.3551 44.0577V38.5317C32.3551 37.6148 31.6206 36.8716 30.7145 36.8716H19.7103C15.0764 36.8716 11.3065 40.6865 11.3065 45.3754V53.5032C11.3065 56.3434 12.4131 58.9254 14.2104 60.8368C14.0884 60.8434 13.967 60.8627 13.8485 60.8969C6.09541 61.6072 0 68.2198 0 76.247V83.3398C0 84.2568 0.734508 85 1.64062 85H42.0208C42.927 85 43.6615 84.2568 43.6615 83.3398V76.247C43.6615 68.22 37.5664 61.6074 29.8134 60.8969ZM14.5878 45.3752C14.5878 42.5171 16.8858 40.1917 19.7103 40.1917H29.0738V44.0576C29.0738 46.0038 27.5092 47.5871 25.5859 47.5871H14.5878V45.3752ZM14.5878 50.9074H25.5859C26.861 50.9074 28.0545 50.5484 29.0738 49.9255V53.503C29.0738 57.5443 25.8246 60.8323 21.8308 60.8323C17.837 60.8323 14.5878 57.5443 14.5878 53.503V50.9074ZM25.4016 64.1528L21.8308 67.7662L18.26 64.1528H25.4016ZM40.3804 81.6797H3.28125V78.3594H10.0898C10.996 78.3594 11.7305 77.6161 11.7305 76.6992C11.7305 75.7823 10.996 75.0391 10.0898 75.0391H3.34113C3.89222 69.4417 8.23118 64.9591 13.7189 64.2532L20.6707 71.2878C20.9783 71.5991 21.3957 71.774 21.8308 71.774C22.2659 71.774 22.6833 71.5991 22.9909 71.2878L29.9427 64.2532C35.8201 65.0091 40.3804 70.0976 40.3804 76.247V81.6797Z" fill="white"/>
    <path d="M70.1523 24.0254C70.0337 23.9912 69.9121 23.972 69.7897 23.9653C71.5869 22.054 72.6935 19.472 72.6935 16.6318V7.89736C72.6935 7.81751 72.6859 7.73965 72.6752 7.66295C72.6861 7.50523 72.6935 7.34652 72.6935 7.18615V1.66016C72.6935 0.743252 71.959 0 71.0528 0H60.0487C55.4147 0 51.6449 3.81487 51.6449 8.50382V16.6316C51.6449 19.4718 52.7515 22.0538 54.5486 23.9652C54.4264 23.9718 54.3047 23.9911 54.1861 24.0253C46.4333 24.736 40.3384 31.3486 40.3384 39.3754V46.4681C40.3384 47.385 41.0729 48.1283 41.979 48.1283H55.1795C56.0856 48.1283 56.8201 47.385 56.8201 46.4681C56.8201 45.5512 56.0856 44.8079 55.1795 44.8079H43.6196V39.3756C43.6196 33.2262 48.1797 28.1377 54.0571 27.3818L61.0089 34.4164C61.3293 34.7406 61.7492 34.9026 62.169 34.9026C62.5888 34.9026 63.0089 34.7406 63.3291 34.4164L70.2809 27.3818C76.1586 28.1378 80.7187 33.2262 80.7187 39.3756V44.8081H68.6327C67.7266 44.8081 66.9921 45.5514 66.9921 46.4683C66.9921 47.3852 67.7266 48.1284 68.6327 48.1284H82.3594C83.2655 48.1284 84 47.3852 84 46.4683V39.3756C84 31.3487 77.9049 24.7362 70.1523 24.0254ZM62.1693 30.8947L58.5985 27.2813H65.7402L62.1693 30.8947ZM69.4124 16.6316C69.4124 20.6729 66.1631 23.9609 62.1693 23.9609C58.1756 23.9609 54.9263 20.6731 54.9263 16.6318V14.036H65.9244C67.1995 14.036 68.3931 13.6769 69.4124 13.0541V16.6316ZM69.4124 7.18615C69.4124 9.13235 67.8477 10.7156 65.9244 10.7156H54.9263V8.50382C54.9263 5.64569 57.2243 3.32031 60.0488 3.32031H69.4124V7.18615Z" fill="white"/>
    <path d="M63.3298 45.294C63.0246 44.9853 62.6013 44.8076 62.1698 44.8076C61.7367 44.8076 61.3151 44.9853 61.0099 45.294C60.7031 45.6028 60.5292 46.0312 60.5292 46.4678C60.5292 46.9061 60.7031 47.3327 61.0099 47.6415C61.3151 47.952 61.7367 48.1279 62.1698 48.1279C62.6013 48.1279 63.0246 47.952 63.3298 47.6415C63.6349 47.3327 63.8105 46.9061 63.8105 46.4678C63.8105 46.0312 63.6349 45.6028 63.3298 45.294Z" fill="white"/>
    <path d="M43.8711 23.2304L37.0099 16.2875V8.30078C37.0099 3.72373 33.3299 0 28.8067 0H8.20312C3.67992 0 0 3.72373 0 8.30078V22.9102C0 27.4872 3.67992 31.2109 8.20312 31.2109H28.8066C32.1984 31.2109 35.1561 29.1512 36.3971 26.0645H42.7109C43.3743 26.0645 43.9727 25.6599 44.2267 25.0396C44.4806 24.4194 44.3402 23.7052 43.8711 23.2304ZM35.2003 22.7441C34.4359 22.7441 33.7728 23.2782 33.6013 24.0321C33.0848 26.3038 31.1133 27.8906 28.8066 27.8906H8.20312C5.4892 27.8906 3.28125 25.6564 3.28125 22.9102V8.30078C3.28125 5.55455 5.4892 3.32031 8.20312 3.32031H28.8066C31.5205 3.32031 33.7285 5.55455 33.7285 8.30078V16.9751C33.7285 17.4154 33.9014 17.8377 34.209 18.149L38.7501 22.7441H35.2003Z" fill="white"/>
    <path d="M75.7969 53.7891H55.1934C51.8016 53.7891 48.8439 55.8488 47.6029 58.9355H41.2891C40.6257 58.9355 40.0273 59.3401 39.7733 59.9604C39.5194 60.5806 39.6598 61.2948 40.1289 61.7696L46.9901 68.7125V76.6992C46.9901 81.2763 50.6701 85 55.1933 85H75.7969C80.3201 85 84 81.2763 84 76.6992V62.0898C84 57.5128 80.3201 53.7891 75.7969 53.7891ZM80.7188 76.6992C80.7188 79.4454 78.5108 81.6797 75.7969 81.6797H55.1934C52.4795 81.6797 50.2715 79.4454 50.2715 76.6992V68.0249C50.2715 67.5846 50.0986 67.1623 49.791 66.851L45.2499 62.2559H48.7997C49.5641 62.2559 50.2272 61.7218 50.3987 60.9679C50.9152 58.6961 52.8867 57.1094 55.1934 57.1094H75.7969C78.5108 57.1094 80.7188 59.3436 80.7188 62.0898V76.6992Z" fill="white"/>
    <path d="M72.8693 64.9772C72.2288 64.3289 71.19 64.3289 70.5493 64.9772L66.1881 69.3904L64.1601 67.3383C63.5194 66.69 62.4806 66.69 61.8397 67.3383C61.1991 67.9865 61.1991 69.0378 61.8397 69.6862L65.0278 72.9122C65.3482 73.2365 65.7681 73.3985 66.1879 73.3985C66.6077 73.3985 67.0277 73.2365 67.348 72.9122L72.8693 67.3251C73.51 66.6768 73.51 65.6256 72.8693 64.9772Z" fill="white"/>
    <path d="M25.9634 11.0015C25.7695 8.15485 23.5018 5.86018 20.6886 5.66395C19.0934 5.55289 17.5729 6.09742 16.4081 7.19777C15.2595 8.28268 14.6006 9.81667 14.6006 11.4061C14.6007 12.3232 15.3353 13.0664 16.2414 13.0664C17.1475 13.0664 17.882 12.3232 17.882 11.4063C17.882 10.7238 18.1537 10.0913 18.6472 9.62508C19.1399 9.15958 19.7854 8.92848 20.4632 8.97663C21.6508 9.05947 22.6081 10.0282 22.69 11.23C22.7729 12.445 21.9857 13.5188 20.8184 13.7831C19.5407 14.0723 18.6483 15.1964 18.6483 16.5166V17.4023C18.6483 18.3192 19.3828 19.0624 20.289 19.0624C21.1951 19.0624 21.9296 18.3192 21.9296 17.4023V16.9191C24.4716 16.1518 26.1491 13.7268 25.9634 11.0015Z" fill="white"/>
    <path d="M21.4495 22.5814C21.1444 22.2726 20.7211 22.095 20.2896 22.095C19.8565 22.095 19.4348 22.2726 19.1297 22.5814C18.8229 22.8902 18.649 23.3185 18.649 23.7552C18.649 24.1918 18.8229 24.6201 19.1297 24.9289C19.4348 25.2377 19.8565 25.4153 20.2896 25.4153C20.7211 25.4153 21.1444 25.2377 21.4495 24.9289C21.7547 24.6201 21.9302 24.1918 21.9302 23.7552C21.9302 23.3185 21.7547 22.8902 21.4495 22.5814Z" fill="white"/>
    <path d="M17.8123 75.5255C17.5071 75.2167 17.0838 75.0391 16.6523 75.0391C16.2209 75.0391 15.7976 75.2167 15.4924 75.5255C15.1873 75.8343 15.0117 76.2626 15.0117 76.6992C15.0117 77.1358 15.1873 77.5642 15.4924 77.8729C15.7976 78.1817 16.2209 78.3594 16.6523 78.3594C17.0838 78.3594 17.5071 78.1817 17.8123 77.8729C18.1174 77.5642 18.293 77.1358 18.293 76.6992C18.293 76.2626 18.1174 75.8343 17.8123 75.5255Z" fill="white"/>
</svg>
