<svg width="10" height="19" viewBox="0 0 10 19" fill="none" xmlns="http://www.w3.org/2000/svg">
    <path d="M9.52279 0.00378555L7.16344 0C4.5128 0 2.79984 1.75744 2.79984 4.47755V6.542H0.427625C0.222637 6.542 0.0566406 6.70819 0.0566406 6.91317V9.90433C0.0566406 10.1093 0.222826 10.2753 0.427625 10.2753H2.79984V17.8229C2.79984 18.0279 2.96584 18.1939 3.17082 18.1939H6.26589C6.47088 18.1939 6.63687 18.0277 6.63687 17.8229V10.2753H9.41055C9.61554 10.2753 9.78153 10.1093 9.78153 9.90433L9.78267 6.91317C9.78267 6.81475 9.74349 6.72049 9.67402 6.65083C9.60456 6.58118 9.50992 6.542 9.41149 6.542H6.63687V4.79194C6.63687 3.95079 6.83732 3.52378 7.93305 3.52378L9.52241 3.52321C9.72721 3.52321 9.8932 3.35703 9.8932 3.15223V0.37477C9.8932 0.170161 9.7274 0.00416411 9.52279 0.00378555Z" fill="#ED2823"/>
</svg>
