<svg width="20" height="20" viewBox="0 0 20 20" fill="none" xmlns="http://www.w3.org/2000/svg">
    <path d="M14.3781 0H5.80888C2.89879 0 0.53125 2.36766 0.53125 5.27774V13.847C0.53125 16.7572 2.89879 19.1248 5.80888 19.1248H14.3781C17.2885 19.1248 19.656 16.7571 19.656 13.847V5.27774C19.6561 2.36766 17.2885 0 14.3781 0ZM17.9593 13.847C17.9593 15.8216 16.3528 17.4279 14.3783 17.4279H5.80888C3.83443 17.428 2.22809 15.8216 2.22809 13.847V5.27774C2.22809 3.3033 3.83443 1.69684 5.80888 1.69684H14.3781C16.3527 1.69684 17.9592 3.3033 17.9592 5.27774L17.9593 13.847Z" fill="#ED2823"/>
    <path d="M10.0935 4.63477C7.37617 4.63477 5.16553 6.84541 5.16553 9.56273C5.16553 12.2799 7.37617 14.4905 10.0935 14.4905C12.8108 14.4905 15.0215 12.2799 15.0215 9.56273C15.0215 6.84541 12.8108 4.63477 10.0935 4.63477ZM10.0935 12.7935C8.31192 12.7935 6.86237 11.3442 6.86237 9.56262C6.86237 7.78093 8.31181 6.33149 10.0935 6.33149C11.8752 6.33149 13.3246 7.78093 13.3246 9.56262C13.3246 11.3442 11.8751 12.7935 10.0935 12.7935Z" fill="#ED2823"/>
    <path d="M15.2282 3.1958C14.9013 3.1958 14.5802 3.32815 14.3493 3.56006C14.1173 3.79083 13.9839 4.11209 13.9839 4.44015C13.9839 4.76719 14.1174 5.08834 14.3493 5.32025C14.58 5.55102 14.9013 5.6845 15.2282 5.6845C15.5563 5.6845 15.8764 5.55102 16.1083 5.32025C16.3402 5.08834 16.4726 4.76708 16.4726 4.44015C16.4726 4.11209 16.3402 3.79083 16.1083 3.56006C15.8776 3.32815 15.5563 3.1958 15.2282 3.1958Z" fill="#ED2823"/>
</svg>
