<svg width="172" height="46" viewBox="0 0 172 46" fill="none" xmlns="http://www.w3.org/2000/svg">
    <path d="M159.54 19.2896L156.533 20.8694C156.864 21.4045 157.17 21.9651 157.451 22.5512C158.444 21.8377 159.26 20.5381 159.54 19.2896Z" fill="#403F41"/>
    <path d="M160.737 19.5442C160.38 21.226 159.233 22.9078 157.857 23.7487C158.189 24.717 158.393 25.7362 158.495 26.8064C158.495 26.8574 158.495 26.8829 158.495 26.9338C158.52 27.2651 158.545 27.5964 158.545 27.9276C158.545 35.2153 152.634 41.127 145.346 41.127C138.058 41.127 132.147 35.2153 132.147 27.9276C132.147 20.6399 138.058 14.7282 145.346 14.7282C145.397 14.7282 145.423 14.7282 145.473 14.7282C145.626 14.7282 145.779 14.7282 145.932 14.7282C146.111 14.7282 146.263 14.7537 146.442 14.7537C146.467 14.7537 146.493 14.7537 146.518 14.7537C146.9 14.7792 147.257 14.8301 147.639 14.9066C148.073 13.4541 148.888 12.0272 149.882 10.8805C148.429 10.4983 146.926 10.2944 145.346 10.2944C135.612 10.2944 127.713 18.1937 127.713 27.9276C127.713 37.6615 135.612 45.5608 145.346 45.5608C155.08 45.5608 162.979 37.6615 162.979 27.9276C162.979 24.8444 162.189 21.9395 160.788 19.3913L160.737 19.5442Z" fill="#403F41"/>
    <path d="M153.017 9.9123C151.157 10.8806 149.551 12.9956 148.863 15.187C151.768 15.9769 154.291 17.7606 156.024 20.1304L159.846 18.1173L160.152 17.9644C161.324 17.3529 162.368 15.8495 162.649 14.448L156.227 17.7351C156.176 17.7606 156.1 17.7861 156.024 17.7861C155.871 17.7861 155.718 17.7096 155.641 17.5567C155.539 17.3529 155.616 17.0726 155.82 16.9707L162.955 13.3013L163.26 13.1484C164.432 12.5369 165.477 11.0335 165.757 9.632L157.705 13.709C157.654 13.7345 157.578 13.76 157.501 13.76C157.349 13.76 157.196 13.6836 157.119 13.5307C157.017 13.3268 157.094 13.0465 157.323 12.9446L166.089 8.51081L166.395 8.35793C167.567 7.74637 168.611 6.24296 168.892 4.84148L159.183 9.68296C159.132 9.70844 159.056 9.73393 158.979 9.73393C158.827 9.73393 158.674 9.65748 158.597 9.50459C158.495 9.30074 158.572 9.02044 158.801 8.91852L169.198 3.66933L169.503 3.51644C170.675 2.90489 171.72 1.40148 172 0L153.017 9.9123Z" fill="#403F41"/>
    <path d="M11.8489 31.5973H8.96948L10.3964 21.4302H7.54252L6.11556 31.5973H3.21067L4.63763 21.4302H1.75822L0 34.018H14.3716L16.1553 21.4302H13.3013L11.8489 31.5973Z" fill="#ED2823"/>
    <path d="M19.7743 29.1511L20.87 21.4302H18.016L16.2578 34.018H19.1882L24.6412 26.2971L23.5455 34.018H26.374L28.1577 21.4302H25.2273L19.7743 29.1511Z" fill="#ED2823"/>
    <path d="M36.1591 26.0678H32.2859L32.923 21.4302H29.9926L28.2344 34.018H31.1647L31.9292 28.616H35.8024L35.0379 34.018H37.9428L39.7265 21.4302H36.8216L36.1591 26.0678Z" fill="#ED2823"/>
    <path d="M46.2747 21.2007C42.5034 21.2007 40.9491 22.8825 40.2866 27.5711C39.9298 30.1956 40.2101 31.9029 41.1274 32.9476C41.8919 33.814 43.064 34.2217 44.8477 34.2217C48.5935 34.2217 50.1479 32.5399 50.7849 27.8514C51.1417 25.2268 50.8868 23.5195 49.9695 22.4748C49.1796 21.6084 48.0074 21.2007 46.2747 21.2007ZM44.8987 31.6481C44.1852 31.6481 43.752 31.5207 43.4972 31.2404C43.0895 30.7817 43.0385 29.7625 43.3188 27.8768C43.8285 24.4114 44.491 23.8253 46.2237 23.8253C46.9627 23.8253 47.3959 23.9527 47.6507 24.233C48.0584 24.6916 48.0839 25.7109 47.8036 27.5965C47.2685 31.062 46.504 31.6481 44.8987 31.6481Z" fill="#ED2823"/>
    <path d="M64.9519 21.4302H62.735C62.0725 21.4557 61.6648 21.7614 61.4354 22.3475L58.8618 28.8708C58.7853 29.0491 58.7344 29.202 58.6579 29.3804C58.6325 29.2275 58.6325 29.0746 58.607 28.9217L57.7406 22.5004C57.6132 21.5576 56.9507 21.4302 56.5685 21.4302H54.4025C53.689 21.4302 53.2813 21.8124 53.1285 22.5514L51.0645 34.018H53.9184L55.4728 24.9976L56.3391 31.4189C56.4156 32.0814 56.8742 32.5146 57.5622 32.5146H59.193C59.8556 32.5146 60.2888 32.2088 60.5181 31.5973L63.0407 25.2524L62.1234 34.018H64.9773L66.073 22.7297C66.124 22.3475 66.0476 22.0417 65.8182 21.7869C65.7163 21.6085 65.436 21.4302 64.9519 21.4302Z" fill="#ED2823"/>
    <path d="M73.1067 21.2007C69.3355 21.2007 67.7811 22.8825 67.1186 27.5711C66.7618 30.1956 67.0421 31.9029 67.9595 32.9476C68.7239 33.814 69.8961 34.2217 71.6798 34.2217C75.4255 34.2217 76.9799 32.5399 77.617 27.8514C77.9737 25.2268 77.7189 23.5195 76.8015 22.4748C76.0116 21.6084 74.8395 21.2007 73.1067 21.2007ZM71.7052 31.6481C70.9918 31.6481 70.5586 31.5207 70.3038 31.2404C69.8961 30.7817 69.8451 29.7625 70.1254 27.8768C70.635 24.4114 71.2975 23.8253 73.0303 23.8253C73.7693 23.8253 74.2024 23.9527 74.4573 24.233C74.865 24.6916 74.8904 25.7109 74.6101 27.5965C74.1005 31.062 73.3361 31.6481 71.7052 31.6481Z" fill="#ED2823"/>
    <path d="M86.1025 26.0678H82.2293L82.8663 21.4302H79.936L78.1777 34.018H81.1081L81.8471 28.616H85.7203L84.9813 34.018H87.8862L89.6699 21.4302H86.7395L86.1025 26.0678Z" fill="#ED2823"/>
    <path d="M100.678 21.4302H90.511L90.1543 24.0038H93.7727L92.3712 34.018H95.2761L96.6776 24.0038H100.321L100.678 21.4302Z" fill="#ED2823"/>
    <path d="M125.42 22.7549L126.032 21.4044H122.999L122.847 21.7356C121.445 24.6405 120.681 26.2459 119.33 26.2459H119.05C119.126 25.9401 119.152 25.6598 119.203 25.354L119.789 21.3789H116.96L116.451 25.2011C116.4 25.5579 116.374 25.9146 116.374 26.2713H115.712C114.591 26.2713 114.31 25.1247 113.775 22.3472L113.597 21.4299H110.743L110.845 21.965C111.354 24.7934 111.686 26.5771 112.934 27.3671C111.354 28.0551 110.539 29.8388 109.036 33.0494L107.124 22.3727C107.073 21.8376 106.615 21.4299 106.054 21.4299H103.939C103.404 21.4299 102.971 21.7102 102.793 22.1943L97.416 34.0177H100.499L101.926 30.6796H105.748L106.258 34.0177H108.551H109.163H111.66L112.221 32.8711C113.826 29.6094 114.361 28.6666 115.61 28.6666H115.992C115.941 28.8959 115.89 29.1253 115.839 29.3546L115.177 33.9922H118.031L118.642 29.533C118.668 29.2527 118.693 28.9469 118.693 28.6666H119.228C120.426 28.6666 120.655 29.4565 121.267 32.4888C121.343 32.8711 121.42 33.2788 121.521 33.6865L121.598 33.9922H124.528L124.299 32.8711C123.687 29.9152 123.331 28.2334 122.159 27.5199C123.56 26.8574 124.274 25.2776 125.42 22.7549ZM105.366 28.106H102.996L104.5 24.6151C104.576 24.4112 104.678 24.1819 104.755 23.978C104.78 24.1564 104.78 24.3602 104.806 24.5386L105.366 28.106Z" fill="#ED2823"/>
    <path d="M140.81 25.3797L140.097 25.3032L140.453 23.8253H145.04L145.677 21.0988H138.313L137.064 26.2715C136.962 26.6537 137.039 27.036 137.243 27.3163C137.447 27.622 137.778 27.8004 138.186 27.8514L139.638 27.9788C140.275 28.0297 141.116 28.1317 141.371 28.4629C141.447 28.5394 141.524 28.7177 141.447 29.1764C141.294 29.9663 140.938 30.7308 139.179 30.8327C138.44 30.8837 137.549 30.8072 136.58 30.6034L136.071 30.5014L135.434 33.1515L135.892 33.2789C136.937 33.5337 138.058 33.6866 139.052 33.6866C139.205 33.6866 139.383 33.6866 139.536 33.6866C142.263 33.5337 144.021 32.0558 144.429 29.4822C144.607 28.361 144.429 27.4691 143.919 26.8066C143.333 25.9912 142.314 25.5326 140.81 25.3797ZM154.85 24.5897C155.003 23.8253 155.105 22.7296 154.468 21.9397C153.882 21.2262 152.837 20.9204 151.079 20.9204C148.047 20.8694 146.824 21.8123 146.365 24.284C146.161 25.4052 146.263 26.246 146.671 26.8066C146.696 26.8321 146.722 26.8831 146.747 26.9086C145.601 27.5456 145.218 28.8961 145.015 29.9663C144.836 31.062 144.989 31.9029 145.499 32.5145C146.136 33.2789 147.308 33.6357 149.092 33.6357C152.251 33.6102 153.602 32.6929 154.035 30.2466C154.29 28.9216 154.188 27.9788 153.729 27.3417C153.653 27.2398 153.576 27.1379 153.474 27.0614C154.162 26.6028 154.621 25.7874 154.85 24.5897ZM151.207 29.5331C151.003 30.6543 150.773 30.9346 149.372 30.9346C148.608 30.9346 148.149 30.8582 148.021 30.7053C147.92 30.6034 147.92 30.3231 148.021 29.8389C148.251 28.5394 148.455 28.3865 149.882 28.361C150.646 28.361 151.105 28.4374 151.207 28.5649C151.334 28.6668 151.334 28.998 151.207 29.5331ZM151.971 24.5133C151.793 25.558 151.64 25.7619 150.366 25.7619C149.499 25.7619 149.219 25.66 149.143 25.558C149.092 25.5071 149.066 25.3032 149.168 24.7936C149.372 23.7234 149.448 23.494 150.824 23.494C151.716 23.494 151.946 23.6214 151.997 23.6724C152.073 23.7743 152.048 24.0546 151.971 24.5133Z" fill="#ED2823"/>
</svg>
