<svg width="11" height="19" viewBox="0 0 11 19" fill="none" xmlns="http://www.w3.org/2000/svg">
    <path d="M4.64107 12.8153C3.23064 12.6682 1.95893 12.3208 0.870141 11.4692C0.735043 11.3633 0.595562 11.2612 0.472278 11.1428C-0.00428057 10.6851 -0.0522986 10.1609 0.324795 9.62073C0.647391 9.15846 1.18893 9.0348 1.7518 9.30023C1.8608 9.35168 1.96464 9.41589 2.06411 9.48487C4.09325 10.8791 6.88076 10.9176 8.91753 9.54756C9.11932 9.39284 9.33501 9.26669 9.58501 9.20229C10.0711 9.07748 10.5244 9.25602 10.7853 9.68132C11.0833 10.167 11.0795 10.6411 10.7123 11.0182C10.149 11.5963 9.47164 12.0146 8.71898 12.3065C8.00728 12.5824 7.22775 12.7213 6.45623 12.8135C6.57265 12.9403 6.62753 13.0026 6.70032 13.0757C7.74795 14.1283 8.80015 15.1765 9.84435 16.2323C10.2001 16.5921 10.2744 17.0382 10.0785 17.4566C9.86436 17.9139 9.38494 18.2148 8.91486 18.1826C8.61703 18.162 8.38475 18.0138 8.17839 17.8059C7.38781 17.0103 6.58237 16.2295 5.80779 15.4189C5.58238 15.1832 5.47395 15.2278 5.27502 15.4324C4.47968 16.2512 3.67138 17.0574 2.85831 17.859C2.49322 18.219 2.05877 18.2838 1.63538 18.0782C1.18531 17.86 0.898913 17.4006 0.921017 16.9389C0.936261 16.6266 1.08984 16.388 1.30421 16.174C2.34098 15.1388 3.37489 14.1009 4.40918 13.0639C4.47758 12.9949 4.54142 12.9218 4.64107 12.8153Z" fill="#ED2823"/>
    <path d="M5.50013 9.20898C2.98395 9.2004 0.920708 7.11448 0.935381 4.5943C0.949862 2.04631 3.01444 -0.00703215 5.55539 1.81013e-05C8.10148 0.0068778 10.1451 2.08975 10.1323 4.66423C10.1194 7.17927 8.04184 9.21774 5.50013 9.20898ZM7.78689 4.6004C7.78251 3.34908 6.78594 2.3529 5.5371 2.35175C4.27777 2.35042 3.27225 3.3647 3.28197 4.62746C3.29131 5.87402 4.29644 6.86315 5.54872 6.85858C6.79719 6.85419 7.79108 5.85153 7.78689 4.6004Z" fill="#ED2823"/>
</svg>
