<svg xmlns="http://www.w3.org/2000/svg" display="none">
    <symbol id="vk" viewBox="0 0 26 15">
        <path fill-rule="evenodd" clip-rule="evenodd"
              d="M21.9942 9.19569C22.842 10.0233 23.7367 10.802 24.497 11.7131C24.8329 12.118 25.1508 12.5358 25.3941 13.0057C25.7388 13.6736 25.4266 14.4087 24.8276 14.4485L21.1046 14.4469C20.1444 14.5265 19.3784 14.14 18.7343 13.4835C18.2188 12.9584 17.7415 12.3996 17.2459 11.8569C17.0427 11.635 16.83 11.4263 16.5759 11.2613C16.0677 10.9314 15.6265 11.0324 15.3361 11.5625C15.0403 12.1016 14.9732 12.6986 14.9441 13.2995C14.9042 14.1762 14.6392 14.4066 13.7586 14.4468C11.8766 14.5355 10.0905 14.2508 8.43128 13.3014C6.96844 12.4645 5.83407 11.2829 4.84673 9.94525C2.92435 7.34056 1.45219 4.47845 0.129064 1.53614C-0.16876 0.873237 0.0490457 0.517393 0.780466 0.504798C1.99502 0.481204 3.20941 0.482884 4.42539 0.503119C4.91902 0.51034 5.24581 0.79347 5.43641 1.25981C6.09352 2.87555 6.89757 4.41279 7.90683 5.83767C8.17561 6.21703 8.44967 6.59638 8.83994 6.86339C9.27169 7.15903 9.60041 7.06105 9.80352 6.58009C9.93241 6.27513 9.98883 5.94666 10.0179 5.62004C10.1141 4.49633 10.1268 3.37456 9.95802 2.2548C9.8544 1.55596 9.46078 1.10355 8.76345 0.971308C8.4076 0.903884 8.46058 0.771472 8.63288 0.56836C8.93213 0.218058 9.21358 0 9.77464 0H13.9822C14.6446 0.130734 14.7917 0.428306 14.8824 1.09482L14.886 5.76857C14.8788 6.02659 15.0149 6.79227 15.4796 6.96306C15.8516 7.08464 16.0968 6.78707 16.32 6.55121C17.3274 5.482 18.0464 4.21841 18.6887 2.90998C18.9738 2.33465 19.2189 1.73715 19.4564 1.14016C19.6324 0.697162 19.9086 0.479189 20.4076 0.488845L24.4571 0.492455C24.5772 0.492455 24.6987 0.494219 24.815 0.514118C25.4974 0.63041 25.6843 0.923952 25.4736 1.5903C25.1415 2.63575 24.4954 3.50697 23.8636 4.38222C23.1883 5.31667 22.466 6.21913 21.7963 7.15912C21.181 8.01749 21.2299 8.45016 21.9942 9.19569Z"/>
    </symbol>

    <symbol id="insta" viewBox="0 0 20 20">
        <path d="M14.3781 0H5.80888C2.89879 0 0.53125 2.36766 0.53125 5.27774V13.847C0.53125 16.7572 2.89879 19.1248 5.80888 19.1248H14.3781C17.2885 19.1248 19.656 16.7571 19.656 13.847V5.27774C19.6561 2.36766 17.2885 0 14.3781 0ZM17.9593 13.847C17.9593 15.8216 16.3528 17.4279 14.3783 17.4279H5.80888C3.83443 17.428 2.22809 15.8216 2.22809 13.847V5.27774C2.22809 3.3033 3.83443 1.69684 5.80888 1.69684H14.3781C16.3527 1.69684 17.9592 3.3033 17.9592 5.27774L17.9593 13.847Z"/>
        <path d="M10.0935 4.63477C7.37617 4.63477 5.16553 6.84541 5.16553 9.56273C5.16553 12.2799 7.37617 14.4905 10.0935 14.4905C12.8108 14.4905 15.0215 12.2799 15.0215 9.56273C15.0215 6.84541 12.8108 4.63477 10.0935 4.63477ZM10.0935 12.7935C8.31192 12.7935 6.86237 11.3442 6.86237 9.56262C6.86237 7.78093 8.31181 6.33149 10.0935 6.33149C11.8752 6.33149 13.3246 7.78093 13.3246 9.56262C13.3246 11.3442 11.8751 12.7935 10.0935 12.7935Z"/>
        <path d="M15.2282 3.1958C14.9013 3.1958 14.5802 3.32815 14.3493 3.56006C14.1173 3.79083 13.9839 4.11209 13.9839 4.44015C13.9839 4.76719 14.1174 5.08834 14.3493 5.32025C14.58 5.55102 14.9013 5.6845 15.2282 5.6845C15.5563 5.6845 15.8764 5.55102 16.1083 5.32025C16.3402 5.08834 16.4726 4.76708 16.4726 4.44015C16.4726 4.11209 16.3402 3.79083 16.1083 3.56006C15.8776 3.32815 15.5563 3.1958 15.2282 3.1958Z"/>
    </symbol>

    <symbol id="fb" viewBox="0 0 10 19">
        <path d="M9.52279 0.00378555L7.16344 0C4.5128 0 2.79984 1.75744 2.79984 4.47755V6.542H0.427625C0.222637 6.542 0.0566406 6.70819 0.0566406 6.91317V9.90433C0.0566406 10.1093 0.222826 10.2753 0.427625 10.2753H2.79984V17.8229C2.79984 18.0279 2.96584 18.1939 3.17082 18.1939H6.26589C6.47088 18.1939 6.63687 18.0277 6.63687 17.8229V10.2753H9.41055C9.61554 10.2753 9.78153 10.1093 9.78153 9.90433L9.78267 6.91317C9.78267 6.81475 9.74349 6.72049 9.67402 6.65083C9.60456 6.58118 9.50992 6.542 9.41149 6.542H6.63687V4.79194C6.63687 3.95079 6.83732 3.52378 7.93305 3.52378L9.52241 3.52321C9.72721 3.52321 9.8932 3.35703 9.8932 3.15223V0.37477C9.8932 0.170161 9.7274 0.00416411 9.52279 0.00378555Z"/>
    </symbol>

    <symbol id="ok" viewBox="0 0 11 19">
        <path d="M4.64107 12.8153C3.23064 12.6682 1.95893 12.3208 0.870141 11.4692C0.735043 11.3633 0.595562 11.2612 0.472278 11.1428C-0.00428057 10.6851 -0.0522986 10.1609 0.324795 9.62073C0.647391 9.15846 1.18893 9.0348 1.7518 9.30023C1.8608 9.35168 1.96464 9.41589 2.06411 9.48487C4.09325 10.8791 6.88076 10.9176 8.91753 9.54756C9.11932 9.39284 9.33501 9.26669 9.58501 9.20229C10.0711 9.07748 10.5244 9.25602 10.7853 9.68132C11.0833 10.167 11.0795 10.6411 10.7123 11.0182C10.149 11.5963 9.47164 12.0146 8.71898 12.3065C8.00728 12.5824 7.22775 12.7213 6.45623 12.8135C6.57265 12.9403 6.62753 13.0026 6.70032 13.0757C7.74795 14.1283 8.80015 15.1765 9.84435 16.2323C10.2001 16.5921 10.2744 17.0382 10.0785 17.4566C9.86436 17.9139 9.38494 18.2148 8.91486 18.1826C8.61703 18.162 8.38475 18.0138 8.17839 17.8059C7.38781 17.0103 6.58237 16.2295 5.80779 15.4189C5.58238 15.1832 5.47395 15.2278 5.27502 15.4324C4.47968 16.2512 3.67138 17.0574 2.85831 17.859C2.49322 18.219 2.05877 18.2838 1.63538 18.0782C1.18531 17.86 0.898913 17.4006 0.921017 16.9389C0.936261 16.6266 1.08984 16.388 1.30421 16.174C2.34098 15.1388 3.37489 14.1009 4.40918 13.0639C4.47758 12.9949 4.54142 12.9218 4.64107 12.8153Z"/>
        <path d="M5.50013 9.20898C2.98395 9.2004 0.920708 7.11448 0.935381 4.5943C0.949862 2.04631 3.01444 -0.00703215 5.55539 1.81013e-05C8.10148 0.0068778 10.1451 2.08975 10.1323 4.66423C10.1194 7.17927 8.04184 9.21774 5.50013 9.20898ZM7.78689 4.6004C7.78251 3.34908 6.78594 2.3529 5.5371 2.35175C4.27777 2.35042 3.27225 3.3647 3.28197 4.62746C3.29131 5.87402 4.29644 6.86315 5.54872 6.85858C6.79719 6.85419 7.79108 5.85153 7.78689 4.6004Z"/>
    </symbol>

    <symbol id="arrow-right" viewBox="0 0 15 26">
        <path fill-rule="evenodd" clip-rule="evenodd"
              d="M0.670337 0.656607C1.55523 -0.227724 2.97981 -0.217481 3.85224 0.679482L14.3522 11.4748C15.2203 12.3673 15.2153 13.8025 14.341 14.6887L3.84099 25.332C2.96231 26.2227 1.53769 26.2227 0.65901 25.332C-0.219669 24.4413 -0.219669 22.9973 0.659011 22.1066L9.57927 13.0646L0.64777 3.88192C-0.224656 2.98496 -0.214552 1.54094 0.670337 0.656607Z"/>
    </symbol>

</svg>