<svg width="26" height="15" viewBox="0 0 26 15" fill="none" xmlns="http://www.w3.org/2000/svg">
    <path fill-rule="evenodd" clip-rule="evenodd" d="M21.9942 9.19569C22.842 10.0233 23.7367 10.802 24.497 11.7131C24.8329 12.118 25.1508 12.5358 25.3941 13.0057C25.7388 13.6736 25.4266 14.4087 24.8276 14.4485L21.1046 14.4469C20.1444 14.5265 19.3784 14.14 18.7343 13.4835C18.2188 12.9584 17.7415 12.3996 17.2459 11.8569C17.0427 11.635 16.83 11.4263 16.5759 11.2613C16.0677 10.9314 15.6265 11.0324 15.3361 11.5625C15.0403 12.1016 14.9732 12.6986 14.9441 13.2995C14.9042 14.1762 14.6392 14.4066 13.7586 14.4468C11.8766 14.5355 10.0905 14.2508 8.43128 13.3014C6.96844 12.4645 5.83407 11.2829 4.84673 9.94525C2.92435 7.34056 1.45219 4.47845 0.129064 1.53614C-0.16876 0.873237 0.0490457 0.517393 0.780466 0.504798C1.99502 0.481204 3.20941 0.482884 4.42539 0.503119C4.91902 0.51034 5.24581 0.79347 5.43641 1.25981C6.09352 2.87555 6.89757 4.41279 7.90683 5.83767C8.17561 6.21703 8.44967 6.59638 8.83994 6.86339C9.27169 7.15903 9.60041 7.06105 9.80352 6.58009C9.93241 6.27513 9.98883 5.94666 10.0179 5.62004C10.1141 4.49633 10.1268 3.37456 9.95802 2.2548C9.8544 1.55596 9.46078 1.10355 8.76345 0.971308C8.4076 0.903884 8.46058 0.771472 8.63288 0.56836C8.93213 0.218058 9.21358 0 9.77464 0H13.9822C14.6446 0.130734 14.7917 0.428306 14.8824 1.09482L14.886 5.76857C14.8788 6.02659 15.0149 6.79227 15.4796 6.96306C15.8516 7.08464 16.0968 6.78707 16.32 6.55121C17.3274 5.482 18.0464 4.21841 18.6887 2.90998C18.9738 2.33465 19.2189 1.73715 19.4564 1.14016C19.6324 0.697162 19.9086 0.479189 20.4076 0.488845L24.4571 0.492455C24.5772 0.492455 24.6987 0.494219 24.815 0.514118C25.4974 0.63041 25.6843 0.923952 25.4736 1.5903C25.1415 2.63575 24.4954 3.50697 23.8636 4.38222C23.1883 5.31667 22.466 6.21913 21.7963 7.15912C21.181 8.01749 21.2299 8.45016 21.9942 9.19569Z" fill="#ED2823"/>
</svg>
